<?xml version="1.0" encoding="UTF-8" standalone="no"?>
<svg
   xmlns:dc="http://purl.org/dc/elements/1.1/"
   xmlns:cc="http://creativecommons.org/ns#"
   xmlns:rdf="http://www.w3.org/1999/02/22-rdf-syntax-ns#"
   xmlns:svg="http://www.w3.org/2000/svg"
   xmlns="http://www.w3.org/2000/svg"
   xmlns:sodipodi="http://sodipodi.sourceforge.net/DTD/sodipodi-0.dtd"
   xmlns:inkscape="http://www.inkscape.org/namespaces/inkscape"
   width="210mm"
   height="297mm"
   viewBox="0 0 210 297"
   version="1.1"
   id="svg8"
   inkscape:version="1.0.1 (1.0.1+r74)"
   sodipodi:docname="profile.svg">
  <defs
     id="defs2">
    <filter
       style="color-interpolation-filters:sRGB;"
       inkscape:label="Drop Shadow"
       id="filter1801">
      <feFlood
         flood-opacity="0.458824"
         flood-color="rgb(0,0,0)"
         result="flood"
         id="feFlood1791" />
      <feComposite
         in="flood"
         in2="SourceGraphic"
         operator="in"
         result="composite1"
         id="feComposite1793" />
      <feGaussianBlur
         in="composite1"
         stdDeviation="0.6"
         result="blur"
         id="feGaussianBlur1795" />
      <feOffset
         dx="-1.4"
         dy="2.77556e-17"
         result="offset"
         id="feOffset1797" />
      <feComposite
         in="SourceGraphic"
         in2="offset"
         operator="over"
         result="composite2"
         id="feComposite1799" />
    </filter>
    <filter
       style="color-interpolation-filters:sRGB;"
       inkscape:label="Drop Shadow"
       id="filter1343">
      <feFlood
         flood-opacity="0.705882"
         flood-color="rgb(0,26,0)"
         result="flood"
         id="feFlood1333" />
      <feComposite
         in="flood"
         in2="SourceGraphic"
         operator="out"
         result="composite1"
         id="feComposite1335" />
      <feGaussianBlur
         in="composite1"
         stdDeviation="3.7"
         result="blur"
         id="feGaussianBlur1337" />
      <feOffset
         dx="4.7"
         dy="4.7"
         result="offset"
         id="feOffset1339" />
      <feComposite
         in="offset"
         in2="SourceGraphic"
         operator="atop"
         result="composite2"
         id="feComposite1341" />
    </filter>
  </defs>
  <sodipodi:namedview
     id="base"
     pagecolor="#ffffff"
     bordercolor="#666666"
     borderopacity="1.0"
     inkscape:pageopacity="0.0"
     inkscape:pageshadow="2"
     inkscape:zoom="0.088388348"
     inkscape:cx="2311.3216"
     inkscape:cy="-738.22763"
     inkscape:document-units="mm"
     inkscape:current-layer="layer1"
     inkscape:document-rotation="0"
     showgrid="false"
     inkscape:snap-bbox="true"
     inkscape:bbox-paths="true"
     inkscape:bbox-nodes="true"
     inkscape:snap-bbox-edge-midpoints="true"
     inkscape:snap-bbox-midpoints="true"
     inkscape:object-paths="true"
     inkscape:snap-intersection-paths="true"
     inkscape:snap-smooth-nodes="true"
     inkscape:snap-midpoints="true"
     inkscape:snap-object-midpoints="true"
     inkscape:snap-center="true"
     inkscape:snap-text-baseline="true"
     inkscape:snap-global="true"
     inkscape:window-width="1472"
     inkscape:window-height="888"
     inkscape:window-x="374"
     inkscape:window-y="28"
     inkscape:window-maximized="0" />
  <metadata
     id="metadata5">
    <rdf:RDF>
      <cc:Work
         rdf:about="">
        <dc:format>image/svg+xml</dc:format>
        <dc:type
           rdf:resource="http://purl.org/dc/dcmitype/StillImage" />
        <dc:title />
      </cc:Work>
    </rdf:RDF>
  </metadata>
  <g
     inkscape:label="Layer 1"
     inkscape:groupmode="layer"
     id="layer1">
    <path
       style="opacity:1;fill:#18bb2d;fill-opacity:1;stroke:none;stroke-width:2.78156;stroke-linecap:round;stroke-linejoin:round;stroke-opacity:0.333687;paint-order:stroke fill markers;filter:url(#filter1343)"
       id="path943"
       sodipodi:type="arc"
       sodipodi:cx="-294.71271"
       sodipodi:cy="-231.79807"
       sodipodi:rx="280.86633"
       sodipodi:ry="280.86633"
       sodipodi:start="0"
       sodipodi:end="1.5707963"
       sodipodi:arc-type="slice"
       d="M -13.846375,-231.79807 A 280.86633,280.86633 0 0 1 -294.71271,49.068268 V -231.79807 Z"
       transform="rotate(90)"
       inkscape:export-xdpi="110"
       inkscape:export-ydpi="110" />
    <path
       style="fill:#ffffff;fill-opacity:1;stroke:none;stroke-width:0.511137px;stroke-linecap:butt;stroke-linejoin:miter;stroke-opacity:1"
       d="m 132.23171,-166.50996 c 0,0 -16.96624,43.05286 27.96455,61.72005 20.52935,8.529242 32.35817,14.916467 37.81229,18.720684 3.44948,2.40591 5.04238,3.677568 5.04238,3.677568 17.40353,43.626386 0.0127,67.294776 0.50418,67.121656 L 23.025918,-106.8296 14.335527,-117.2845 c 21.727905,5.19511 35.43468,-1.82074 51.020827,-10.04743 11.320194,-5.97492 14.466814,-21.9319 10.249729,-27.50548 -11.960699,-15.80796 56.625627,-11.67255 56.625627,-11.67255 z"
       id="path1005"
       sodipodi:nodetypes="cssccccssc"
       inkscape:export-xdpi="110"
       inkscape:export-ydpi="110" />
    <path
       style="fill:#18bb2d;fill-opacity:1;stroke:none;stroke-width:0.511137px;stroke-linecap:butt;stroke-linejoin:miter;stroke-opacity:1"
       d="m 73.285461,-143.52412 38.404739,5.62101 c -5.3022,5.59226 -16.0179,14.95803 -42.385783,7.82789 3.761915,-5.04097 4.024481,-10.51683 3.981044,-13.4489 z"
       id="path1007"
       sodipodi:nodetypes="cccc"
       inkscape:export-xdpi="110"
       inkscape:export-ydpi="110" />
    <path
       id="rect945"
       style="opacity:1;fill:#ffffff;stroke:none;stroke-width:2.74186;stroke-linecap:round;stroke-linejoin:round;stroke-opacity:0.333687;paint-order:stroke fill markers"
       d="m 98.679772,-248.11913 c 39.395758,0 36.311028,26.64853 36.311028,26.64853 v 47.22127 c 0,16.46388 -13.21624,38.77784 -35.500389,38.77784 -32.68257,0 -41.026408,-24.64028 -39.24437,-39.14338 1.952002,-15.88646 0.533438,-31.52081 0,-47.22132 0,0 -0.519011,-26.28294 38.433731,-26.28294 z"
       sodipodi:nodetypes="sccsscs"
       inkscape:export-xdpi="110"
       inkscape:export-ydpi="110" />
    <path
       style="fill:none;stroke:#1a1a1a;stroke-width:2.60584;stroke-linecap:round;stroke-linejoin:round;stroke-miterlimit:4;stroke-dasharray:none;stroke-opacity:1"
       d="m 80.235934,-187.87334 c 3.327386,-4.12325 5.968579,-2.51007 8.50248,0"
       id="path967"
       sodipodi:nodetypes="cc"
       inkscape:export-xdpi="110"
       inkscape:export-ydpi="110" />
    <path
       style="opacity:1;fill:none;stroke:#000000;stroke-width:2.40622;stroke-linecap:round;stroke-linejoin:round;stroke-opacity:1;paint-order:stroke fill markers"
       id="path960"
       sodipodi:type="arc"
       sodipodi:cx="60.791645"
       sodipodi:cy="-188.04741"
       sodipodi:rx="11.889349"
       sodipodi:ry="14.291926"
       sodipodi:start="0.23078794"
       sodipodi:end="0.22778274"
       sodipodi:arc-type="arc"
       d="m 72.365765,-184.77821 a 11.889349,14.291926 0 0 1 -14.285048,10.64625 11.889349,14.291926 0 0 1 -8.867266,-17.16374 11.889349,14.291926 0 0 1 14.271725,-10.67204 11.889349,14.291926 0 0 1 8.88871,17.14771"
       sodipodi:open="true"
       transform="matrix(1,0,-0.03812497,0.99927298,0,0)"
       inkscape:export-xdpi="110"
       inkscape:export-ydpi="110" />
    <path
       style="fill:#cccccc;stroke:none;stroke-width:1.27442px;stroke-linecap:butt;stroke-linejoin:miter;stroke-opacity:1"
       d="m 87.72218,-231.29645 c 0,0 5.852574,17.6182 31.34107,16.2595 12.94871,-0.69022 15.91331,20.92943 15.91331,20.94404 0,0.0169 3.50069,-23.64281 3.50069,-23.64281 L 128.09892,-234.296 c 0,0 -22.12428,-4.75294 -25.26565,-3.34587 -3.141407,1.40704 -15.11109,6.34542 -15.11109,6.34542 z"
       id="path981"
       sodipodi:nodetypes="cssccsc"
       inkscape:export-xdpi="110"
       inkscape:export-ydpi="110" />
    <path
       style="fill:#275278;fill-opacity:1;stroke:#1a1a1a;stroke-width:2.60584;stroke-linecap:round;stroke-linejoin:round;stroke-miterlimit:4;stroke-dasharray:none;stroke-opacity:1"
       d="m 113.71163,-188.10673 20.33091,-5.43663"
       id="path971"
       sodipodi:nodetypes="cc"
       inkscape:export-xdpi="110"
       inkscape:export-ydpi="110" />
    <path
       style="opacity:1;fill:none;stroke:#000000;stroke-width:2.40622;stroke-linecap:round;stroke-linejoin:round;stroke-opacity:1;paint-order:stroke fill markers"
       id="path969"
       sodipodi:type="arc"
       sodipodi:cx="93.844131"
       sodipodi:cy="-188.04741"
       sodipodi:rx="11.889349"
       sodipodi:ry="14.291926"
       sodipodi:start="0.23078794"
       sodipodi:end="0.22778274"
       sodipodi:arc-type="arc"
       d="m 105.41825,-184.77821 a 11.889349,14.291926 0 0 1 -14.285047,10.64625 11.889349,14.291926 0 0 1 -8.867265,-17.16374 11.889349,14.291926 0 0 1 14.271725,-10.67204 11.889349,14.291926 0 0 1 8.888707,17.14771"
       sodipodi:open="true"
       transform="matrix(1,0,-0.03812497,0.99927298,0,0)"
       inkscape:export-xdpi="110"
       inkscape:export-ydpi="110" />
    <path
       style="fill:#333333;fill-opacity:1;stroke:none;stroke-width:0.472384px;stroke-linecap:butt;stroke-linejoin:miter;stroke-opacity:1"
       d="m 73.02004,-243.33316 c 0,0 2.451592,13.22272 11.357451,14.20855 8.905843,0.98579 8.959298,-0.84317 3.344693,-2.17184 -5.614546,-1.32863 -8.298549,-1.04361 -10.254774,-5.36217 -1.956216,-4.31852 -2.251525,-10.81903 -2.251525,-10.81903 z"
       id="path999"
       inkscape:export-xdpi="110"
       inkscape:export-ydpi="110" />
    <path
       style="fill:#1a1a1a;stroke:none;stroke-width:1.27442px;stroke-linecap:butt;stroke-linejoin:miter;stroke-opacity:1"
       d="m 61.166454,-201.40675 c 0,0 -10.362769,-24.30286 -2.618985,-36.59456 5.697888,-6.21377 10.046608,-6.9596 10.046608,-6.9596 0,0 -4.291482,-4.54375 0.576986,-12.96575 4.868485,-8.42201 18.720962,-10.8251 26.801595,-6.86299 8.080602,3.96213 8.749342,11.29335 17.656502,8.81021 8.90711,-2.48314 17.14702,-3.5979 21.48511,4.24534 4.33805,7.84322 1.10744,19.92644 8.08047,19.5179 6.97311,-0.40875 17.27468,4.98248 12.58743,17.04591 -4.68728,12.06352 -5.79591,13.7477 -8.89911,35.82798 -3.1032,22.08023 -14.59874,25.45842 -13.62486,17.70914 0.97393,-7.74936 0.97393,-18.4881 0.97393,-18.4881 0,0 1.70451,-17.86773 0,-26.55307 -1.3352,-6.80326 4.47495,-19.5345 -7.8611,-19.25634 -12.3363,0.27787 -26.762823,4.38066 -38.648651,-5.36577 -11.885833,-9.74639 -11.480801,-9.93577 -11.480801,-9.93577 0,0 -8.939788,2.3979 -11.765012,9.55464 -1.403687,3.55574 -1.45508,13.56348 -2.946841,23.75399 z"
       id="path979"
       sodipodi:nodetypes="cccsssssssscasscscc"
       inkscape:export-xdpi="110"
       inkscape:export-ydpi="110" />
    <path
       style="fill:#ffffff;fill-opacity:1;stroke:none;stroke-width:1.27442px;stroke-linecap:butt;stroke-linejoin:miter;stroke-opacity:1"
       d="m 134.9908,-194.35976 c -0.12665,-0.93318 3.43096,-10.00283 6.7847,-6.66992 4.13973,4.11393 4.76561,9.65638 2.713,14.40703 -3.04012,7.03627 -10.06856,7.02272 -10.25663,6.50138 -1.86521,-5.1708 -0.66285,-9.72661 0.75893,-14.23849 z"
       id="path973"
       sodipodi:nodetypes="csssc"
       inkscape:export-xdpi="110"
       inkscape:export-ydpi="110" />
    <path
       style="opacity:0.287431;fill:none;stroke:#000000;stroke-width:1.27442px;stroke-linecap:round;stroke-linejoin:round;stroke-opacity:1"
       d="m 139.93918,-186.52065 c 0.46356,-4.05646 2.89353,-5.89943 5.54909,-6.43373"
       id="path977"
       sodipodi:nodetypes="cc"
       inkscape:export-xdpi="110"
       inkscape:export-ydpi="110" />
    <path
       style="fill:none;stroke:#000000;stroke-width:2.29488;stroke-linecap:round;stroke-linejoin:round;stroke-miterlimit:4;stroke-dasharray:none;stroke-opacity:1"
       d="m 95.50431,-156.71177 c 0,0 -1.273988,4.08738 -7.512147,5.2043 -4.943191,0.88511 -8.067231,-2.23139 -8.067231,-2.23139"
       id="path1001"
       sodipodi:nodetypes="csc"
       inkscape:export-xdpi="110"
       inkscape:export-ydpi="110" />
    <path
       style="fill:#11202a;fill-opacity:1;stroke:none;stroke-width:0.511137px;stroke-linecap:butt;stroke-linejoin:miter;stroke-opacity:1"
       d="m 65.356354,-127.33193 c 18.846107,16.6716 40.063526,27.927823 74.080336,8.28179 7.62953,8.23626 17.64751,13.16012 28.53955,17.38528 16.73577,6.491977 26.46699,8.262142 35.07469,19.273202 13.03507,16.674732 5.47043,42.777746 7.98918,67.777186 -75.43263,-7.62123 -144.141094,-33.63767 -196.704583,-102.670028 0.0038,0.002 34.636015,-1.7204 51.020827,-10.04743 z"
       id="path1009"
       sodipodi:nodetypes="ccssccc"
       inkscape:export-xdpi="110"
       inkscape:export-ydpi="110" />
    <path
       style="opacity:1;fill:#333333;fill-opacity:1;stroke:none;stroke-width:1.89673;stroke-linecap:round;stroke-linejoin:round;stroke-miterlimit:4;stroke-dasharray:none;stroke-opacity:1;paint-order:stroke fill markers"
       id="path1019"
       sodipodi:type="arc"
       sodipodi:cx="67.960915"
       sodipodi:cy="-187.91075"
       sodipodi:rx="2.8429465"
       sodipodi:ry="2.8429465"
       sodipodi:start="1.578467"
       sodipodi:end="1.5707963"
       sodipodi:open="true"
       sodipodi:arc-type="arc"
       d="m 67.939108,-185.06789 a 2.8429465,2.8429465 0 0 1 -2.821093,-2.85922 2.8429465,2.8429465 0 0 1 2.853803,-2.82657 2.8429465,2.8429465 0 0 1 2.832038,2.84838 2.8429465,2.8429465 0 0 1 -2.842941,2.8375"
       inkscape:export-xdpi="110"
       inkscape:export-ydpi="110" />
    <path
       style="opacity:1;fill:#333333;fill-opacity:1;stroke:none;stroke-width:1.89673;stroke-linecap:round;stroke-linejoin:round;stroke-miterlimit:4;stroke-dasharray:none;stroke-opacity:1;paint-order:stroke fill markers"
       id="path1021"
       sodipodi:type="arc"
       sodipodi:cx="98.170471"
       sodipodi:cy="-187.91075"
       sodipodi:rx="2.8429465"
       sodipodi:ry="2.8429465"
       sodipodi:start="1.578467"
       sodipodi:end="1.5707963"
       sodipodi:open="true"
       sodipodi:arc-type="arc"
       d="m 98.148664,-185.06789 a 2.8429465,2.8429465 0 0 1 -2.821092,-2.85922 2.8429465,2.8429465 0 0 1 2.853803,-2.82657 2.8429465,2.8429465 0 0 1 2.832035,2.84838 2.8429465,2.8429465 0 0 1 -2.842939,2.8375"
       inkscape:export-xdpi="110"
       inkscape:export-ydpi="110" />
    <path
       id="path1556"
       style="opacity:1;fill:#186d2d;fill-opacity:1;stroke-width:6.59686;stroke-linecap:round;stroke-linejoin:round;paint-order:stroke fill markers"
       d="M 22.863281 793.18555 C 22.735745 793.18555 22.634766 793.28865 22.634766 793.41602 L 22.634766 1085.1504 C 22.634766 1085.2778 22.735749 1085.3809 22.863281 1085.3809 L 718.46875 1085.3809 C 718.59612 1085.3809 718.69922 1085.2778 718.69922 1085.1504 L 718.69922 1076.8223 A 137.54012 137.54012 0 0 1 717.71289 1076.8203 A 137.54012 137.54012 0 0 1 716.72656 1076.8086 A 137.54012 137.54012 0 0 1 715.74023 1076.791 A 137.54012 137.54012 0 0 1 714.75586 1076.7656 A 137.54012 137.54012 0 0 1 713.76953 1076.7344 A 137.54012 137.54012 0 0 1 712.78516 1076.6953 A 137.54012 137.54012 0 0 1 711.79883 1076.6504 A 137.54012 137.54012 0 0 1 710.81445 1076.5977 A 137.54012 137.54012 0 0 1 709.83008 1076.5371 A 137.54012 137.54012 0 0 1 708.8457 1076.4688 A 137.54012 137.54012 0 0 1 707.86328 1076.3945 A 137.54012 137.54012 0 0 1 706.88086 1076.3145 A 137.54012 137.54012 0 0 1 705.89844 1076.2266 A 137.54012 137.54012 0 0 1 704.91602 1076.1309 A 137.54012 137.54012 0 0 1 703.93555 1076.0293 A 137.54012 137.54012 0 0 1 702.95508 1075.9199 A 137.54012 137.54012 0 0 1 701.97656 1075.8027 A 137.54012 137.54012 0 0 1 700.99805 1075.6797 A 137.54012 137.54012 0 0 1 700.01953 1075.5488 A 137.54012 137.54012 0 0 1 699.04297 1075.4121 A 137.54012 137.54012 0 0 1 698.06836 1075.2676 A 137.54012 137.54012 0 0 1 697.09375 1075.1152 A 137.54012 137.54012 0 0 1 696.11914 1074.957 A 137.54012 137.54012 0 0 1 695.14844 1074.791 A 137.54012 137.54012 0 0 1 694.17578 1074.6191 A 137.54012 137.54012 0 0 1 693.20703 1074.4395 A 137.54012 137.54012 0 0 1 692.23828 1074.2539 A 137.54012 137.54012 0 0 1 691.27148 1074.0605 A 137.54012 137.54012 0 0 1 690.30664 1073.8613 A 137.54012 137.54012 0 0 1 689.3418 1073.6543 A 137.54012 137.54012 0 0 1 688.37891 1073.4395 A 137.54012 137.54012 0 0 1 687.41797 1073.2188 A 137.54012 137.54012 0 0 1 686.45898 1072.9902 A 137.54012 137.54012 0 0 1 685.5 1072.7559 A 137.54012 137.54012 0 0 1 684.54492 1072.5156 A 137.54012 137.54012 0 0 1 683.58984 1072.2656 A 137.54012 137.54012 0 0 1 682.63672 1072.0117 A 137.54012 137.54012 0 0 1 681.68555 1071.75 A 137.54012 137.54012 0 0 1 680.73828 1071.4805 A 137.54012 137.54012 0 0 1 679.79102 1071.2051 A 137.54012 137.54012 0 0 1 678.8457 1070.9219 A 137.54012 137.54012 0 0 1 677.90234 1070.6328 A 137.54012 137.54012 0 0 1 676.96289 1070.3379 A 137.54012 137.54012 0 0 1 676.02344 1070.0352 A 137.54012 137.54012 0 0 1 675.08789 1069.7246 A 137.54012 137.54012 0 0 1 674.15234 1069.4102 A 137.54012 137.54012 0 0 1 673.2207 1069.0859 A 137.54012 137.54012 0 0 1 672.29102 1068.7578 A 137.54012 137.54012 0 0 1 671.36523 1068.4219 A 137.54012 137.54012 0 0 1 670.43945 1068.0781 A 137.54012 137.54012 0 0 1 669.51758 1067.7285 A 137.54012 137.54012 0 0 1 668.59766 1067.373 A 137.54012 137.54012 0 0 1 667.68164 1067.0098 A 137.54012 137.54012 0 0 1 666.76562 1066.6426 A 137.54012 137.54012 0 0 1 665.85352 1066.2656 A 137.54012 137.54012 0 0 1 664.94531 1065.8848 A 137.54012 137.54012 0 0 1 664.03906 1065.4961 A 137.54012 137.54012 0 0 1 663.13477 1065.0996 A 137.54012 137.54012 0 0 1 662.23438 1064.6992 A 137.54012 137.54012 0 0 1 661.33789 1064.291 A 137.54012 137.54012 0 0 1 660.44141 1063.875 A 137.54012 137.54012 0 0 1 659.55078 1063.4551 A 137.54012 137.54012 0 0 1 658.66211 1063.0273 A 137.54012 137.54012 0 0 1 657.77539 1062.5938 A 137.54012 137.54012 0 0 1 656.89258 1062.1543 A 137.54012 137.54012 0 0 1 656.01367 1061.707 A 137.54012 137.54012 0 0 1 655.13672 1061.2559 A 137.54012 137.54012 0 0 1 654.26562 1060.7969 A 137.54012 137.54012 0 0 1 653.39453 1060.3301 A 137.54012 137.54012 0 0 1 652.5293 1059.8594 A 137.54012 137.54012 0 0 1 651.66602 1059.3828 A 137.54012 137.54012 0 0 1 650.80664 1058.8984 A 137.54012 137.54012 0 0 1 649.95117 1058.4082 A 137.54012 137.54012 0 0 1 649.09766 1057.9121 A 137.54012 137.54012 0 0 1 648.25 1057.4102 A 137.54012 137.54012 0 0 1 647.4043 1056.9023 A 137.54012 137.54012 0 0 1 646.5625 1056.3887 A 137.54012 137.54012 0 0 1 645.72461 1055.8672 A 137.54012 137.54012 0 0 1 644.89062 1055.3418 A 137.54012 137.54012 0 0 1 644.06055 1054.8086 A 137.54012 137.54012 0 0 1 643.23438 1054.2715 A 137.54012 137.54012 0 0 1 642.41211 1053.7266 A 137.54012 137.54012 0 0 1 641.59375 1053.1777 A 137.54012 137.54012 0 0 1 640.7793 1052.6211 A 137.54012 137.54012 0 0 1 639.96875 1052.0605 A 137.54012 137.54012 0 0 1 639.16211 1051.4922 A 137.54012 137.54012 0 0 1 638.35938 1050.9199 A 137.54012 137.54012 0 0 1 637.56055 1050.3398 A 137.54012 137.54012 0 0 1 636.76562 1049.7559 A 137.54012 137.54012 0 0 1 635.97656 1049.166 A 137.54012 137.54012 0 0 1 635.19141 1048.5703 A 137.54012 137.54012 0 0 1 634.4082 1047.9688 A 137.54012 137.54012 0 0 1 633.63281 1047.3613 A 137.54012 137.54012 0 0 1 632.85938 1046.748 A 137.54012 137.54012 0 0 1 632.0918 1046.1289 A 137.54012 137.54012 0 0 1 631.32617 1045.5059 A 137.54012 137.54012 0 0 1 630.56836 1044.877 A 137.54012 137.54012 0 0 1 629.8125 1044.2422 A 137.54012 137.54012 0 0 1 629.0625 1043.6016 A 137.54012 137.54012 0 0 1 628.31641 1042.957 A 137.54012 137.54012 0 0 1 627.57617 1042.3066 A 137.54012 137.54012 0 0 1 626.83984 1041.6504 A 137.54012 137.54012 0 0 1 626.10742 1040.9883 A 137.54012 137.54012 0 0 1 625.38086 1040.3223 A 137.54012 137.54012 0 0 1 624.6582 1039.6504 A 137.54012 137.54012 0 0 1 623.94141 1038.9746 A 137.54012 137.54012 0 0 1 623.22852 1038.291 A 137.54012 137.54012 0 0 1 622.52148 1037.6055 A 137.54012 137.54012 0 0 1 621.81836 1036.9121 A 137.54012 137.54012 0 0 1 621.12109 1036.2148 A 137.54012 137.54012 0 0 1 620.42969 1035.5137 A 137.54012 137.54012 0 0 1 619.74219 1034.8066 A 137.54012 137.54012 0 0 1 619.05859 1034.0938 A 137.54012 137.54012 0 0 1 618.38281 1033.377 A 137.54012 137.54012 0 0 1 617.71094 1032.6562 A 137.54012 137.54012 0 0 1 617.04297 1031.9297 A 137.54012 137.54012 0 0 1 616.38086 1031.1973 A 137.54012 137.54012 0 0 1 615.72461 1030.4609 A 137.54012 137.54012 0 0 1 615.07422 1029.7207 A 137.54012 137.54012 0 0 1 614.42773 1028.9766 A 137.54012 137.54012 0 0 1 613.78711 1028.2266 A 137.54012 137.54012 0 0 1 613.15234 1027.4707 A 137.54012 137.54012 0 0 1 612.52344 1026.7129 A 137.54012 137.54012 0 0 1 611.89844 1025.9492 A 137.54012 137.54012 0 0 1 611.28125 1025.1816 A 137.54012 137.54012 0 0 1 610.66797 1024.4082 A 137.54012 137.54012 0 0 1 610.06055 1023.6309 A 137.54012 137.54012 0 0 1 609.45703 1022.8496 A 137.54012 137.54012 0 0 1 608.86133 1022.0645 A 137.54012 137.54012 0 0 1 608.27148 1021.2754 A 137.54012 137.54012 0 0 1 607.68555 1020.4824 A 137.54012 137.54012 0 0 1 607.10547 1019.6836 A 137.54012 137.54012 0 0 1 606.5332 1018.8809 A 137.54012 137.54012 0 0 1 605.96484 1018.0742 A 137.54012 137.54012 0 0 1 605.40234 1017.2637 A 137.54012 137.54012 0 0 1 604.8457 1016.4512 A 137.54012 137.54012 0 0 1 604.29688 1015.6328 A 137.54012 137.54012 0 0 1 603.75195 1014.8105 A 137.54012 137.54012 0 0 1 603.21289 1013.9844 A 137.54012 137.54012 0 0 1 602.67969 1013.1543 A 137.54012 137.54012 0 0 1 602.1543 1012.3203 A 137.54012 137.54012 0 0 1 601.63281 1011.4824 A 137.54012 137.54012 0 0 1 601.11914 1010.6406 A 137.54012 137.54012 0 0 1 600.60938 1009.7969 A 137.54012 137.54012 0 0 1 600.10742 1008.9473 A 137.54012 137.54012 0 0 1 599.61133 1008.0957 A 137.54012 137.54012 0 0 1 599.12109 1007.2402 A 137.54012 137.54012 0 0 1 598.63672 1006.3809 A 137.54012 137.54012 0 0 1 598.1582 1005.5176 A 137.54012 137.54012 0 0 1 597.68555 1004.6523 A 137.54012 137.54012 0 0 1 597.2207 1003.7832 A 137.54012 137.54012 0 0 1 596.76172 1002.9102 A 137.54012 137.54012 0 0 1 596.30859 1002.0332 A 137.54012 137.54012 0 0 1 595.86133 1001.1543 A 137.54012 137.54012 0 0 1 595.42188 1000.2734 A 137.54012 137.54012 0 0 1 594.98633 999.38672 A 137.54012 137.54012 0 0 1 594.55859 998.49805 A 137.54012 137.54012 0 0 1 594.13867 997.60742 A 137.54012 137.54012 0 0 1 593.72266 996.71289 A 137.54012 137.54012 0 0 1 593.31445 995.81445 A 137.54012 137.54012 0 0 1 592.91211 994.91406 A 137.54012 137.54012 0 0 1 592.51562 994.01172 A 137.54012 137.54012 0 0 1 592.12695 993.10547 A 137.54012 137.54012 0 0 1 591.74414 992.19531 A 137.54012 137.54012 0 0 1 591.36914 991.28516 A 137.54012 137.54012 0 0 1 591 990.36914 A 137.54012 137.54012 0 0 1 590.63672 989.45312 A 137.54012 137.54012 0 0 1 590.2793 988.5332 A 137.54012 137.54012 0 0 1 589.92969 987.61133 A 137.54012 137.54012 0 0 1 589.58594 986.6875 A 137.54012 137.54012 0 0 1 589.25 985.75977 A 137.54012 137.54012 0 0 1 588.91992 984.83008 A 137.54012 137.54012 0 0 1 588.59766 983.89844 A 137.54012 137.54012 0 0 1 588.2793 982.96484 A 137.54012 137.54012 0 0 1 587.9707 982.0293 A 137.54012 137.54012 0 0 1 587.66797 981.08984 A 137.54012 137.54012 0 0 1 587.37109 980.15039 A 137.54012 137.54012 0 0 1 587.08203 979.20703 A 137.54012 137.54012 0 0 1 586.79883 978.26172 A 137.54012 137.54012 0 0 1 586.52148 977.31641 A 137.54012 137.54012 0 0 1 586.25391 976.36719 A 137.54012 137.54012 0 0 1 585.99023 975.41602 A 137.54012 137.54012 0 0 1 585.73438 974.46289 A 137.54012 137.54012 0 0 1 585.48633 973.50977 A 137.54012 137.54012 0 0 1 585.24414 972.55273 A 137.54012 137.54012 0 0 1 585.00977 971.5957 A 137.54012 137.54012 0 0 1 584.78125 970.63672 A 137.54012 137.54012 0 0 1 584.55859 969.67578 A 137.54012 137.54012 0 0 1 584.3457 968.71289 A 137.54012 137.54012 0 0 1 584.13672 967.74805 A 137.54012 137.54012 0 0 1 583.9375 966.7832 A 137.54012 137.54012 0 0 1 583.74219 965.81641 A 137.54012 137.54012 0 0 1 583.55664 964.84766 A 137.54012 137.54012 0 0 1 583.37695 963.87891 A 137.54012 137.54012 0 0 1 583.20312 962.90625 A 137.54012 137.54012 0 0 1 583.03711 961.93555 A 137.54012 137.54012 0 0 1 582.87891 960.96094 A 137.54012 137.54012 0 0 1 582.72656 959.98828 A 137.54012 137.54012 0 0 1 582.58203 959.01172 A 137.54012 137.54012 0 0 1 582.44336 958.03516 A 137.54012 137.54012 0 0 1 582.3125 957.05859 A 137.54012 137.54012 0 0 1 582.18945 956.08008 A 137.54012 137.54012 0 0 1 582.07227 955.09961 A 137.54012 137.54012 0 0 1 581.96289 954.12109 A 137.54012 137.54012 0 0 1 581.85938 953.13867 A 137.54012 137.54012 0 0 1 581.76367 952.1582 A 137.54012 137.54012 0 0 1 581.67383 951.17578 A 137.54012 137.54012 0 0 1 581.5918 950.19336 A 137.54012 137.54012 0 0 1 581.51758 949.20898 A 137.54012 137.54012 0 0 1 581.45117 948.22656 A 137.54012 137.54012 0 0 1 581.39062 947.24219 A 137.54012 137.54012 0 0 1 581.33594 946.25781 A 137.54012 137.54012 0 0 1 581.28906 945.27148 A 137.54012 137.54012 0 0 1 581.25 944.28711 A 137.54012 137.54012 0 0 1 581.21875 943.30078 A 137.54012 137.54012 0 0 1 581.19336 942.31445 A 137.54012 137.54012 0 0 1 581.17383 941.32812 A 137.54012 137.54012 0 0 1 581.16406 940.3418 A 137.54012 137.54012 0 0 1 581.16016 939.35742 A 137.54012 137.54012 0 0 1 581.16016 939.2832 A 137.54012 137.54012 0 0 1 581.16211 938.29688 A 137.54012 137.54012 0 0 1 581.17383 937.31055 A 137.54012 137.54012 0 0 1 581.19141 936.32422 A 137.54012 137.54012 0 0 1 581.2168 935.33789 A 137.54012 137.54012 0 0 1 581.24805 934.35352 A 137.54012 137.54012 0 0 1 581.28711 933.36719 A 137.54012 137.54012 0 0 1 581.33203 932.38281 A 137.54012 137.54012 0 0 1 581.38477 931.39844 A 137.54012 137.54012 0 0 1 581.44531 930.41406 A 137.54012 137.54012 0 0 1 581.51367 929.42969 A 137.54012 137.54012 0 0 1 581.58789 928.44531 A 137.54012 137.54012 0 0 1 581.66797 927.46289 A 137.54012 137.54012 0 0 1 581.75586 926.48047 A 137.54012 137.54012 0 0 1 581.85156 925.5 A 137.54012 137.54012 0 0 1 581.95312 924.51953 A 137.54012 137.54012 0 0 1 582.0625 923.53906 A 137.54012 137.54012 0 0 1 582.17969 922.55859 A 137.54012 137.54012 0 0 1 582.30273 921.58008 A 137.54012 137.54012 0 0 1 582.43359 920.60352 A 137.54012 137.54012 0 0 1 582.57031 919.62695 A 137.54012 137.54012 0 0 1 582.71484 918.65039 A 137.54012 137.54012 0 0 1 582.86719 917.67773 A 137.54012 137.54012 0 0 1 583.02539 916.70312 A 137.54012 137.54012 0 0 1 583.19141 915.73047 A 137.54012 137.54012 0 0 1 583.36328 914.75977 A 137.54012 137.54012 0 0 1 583.54297 913.79102 A 137.54012 137.54012 0 0 1 583.72852 912.82227 A 137.54012 137.54012 0 0 1 583.92188 911.85547 A 137.54012 137.54012 0 0 1 584.12109 910.88867 A 137.54012 137.54012 0 0 1 584.32812 909.92578 A 137.54012 137.54012 0 0 1 584.54297 908.96289 A 137.54012 137.54012 0 0 1 584.76367 908.00195 A 137.54012 137.54012 0 0 1 584.99219 907.04102 A 137.54012 137.54012 0 0 1 585.22656 906.08398 A 137.54012 137.54012 0 0 1 585.4668 905.12695 A 137.54012 137.54012 0 0 1 585.7168 904.17383 A 137.54012 137.54012 0 0 1 585.9707 903.2207 A 137.54012 137.54012 0 0 1 586.23242 902.26953 A 137.54012 137.54012 0 0 1 586.50195 901.32031 A 137.54012 137.54012 0 0 1 586.77734 900.375 A 137.54012 137.54012 0 0 1 587.06055 899.42969 A 137.54012 137.54012 0 0 1 587.34961 898.48633 A 137.54012 137.54012 0 0 1 587.64453 897.54492 A 137.54012 137.54012 0 0 1 587.94727 896.60742 A 137.54012 137.54012 0 0 1 588.25781 895.66992 A 137.54012 137.54012 0 0 1 588.57227 894.73633 A 137.54012 137.54012 0 0 1 588.89648 893.80469 A 137.54012 137.54012 0 0 1 589.22461 892.875 A 137.54012 137.54012 0 0 1 589.56055 891.94727 A 137.54012 137.54012 0 0 1 589.9043 891.02344 A 137.54012 137.54012 0 0 1 590.25391 890.10156 A 137.54012 137.54012 0 0 1 590.60938 889.18164 A 137.54012 137.54012 0 0 1 590.97266 888.26367 A 137.54012 137.54012 0 0 1 591.33984 887.34961 A 137.54012 137.54012 0 0 1 591.7168 886.4375 A 137.54012 137.54012 0 0 1 592.09766 885.5293 A 137.54012 137.54012 0 0 1 592.48633 884.62305 A 137.54012 137.54012 0 0 1 592.88281 883.71875 A 137.54012 137.54012 0 0 1 593.2832 882.81836 A 137.54012 137.54012 0 0 1 593.69141 881.91992 A 137.54012 137.54012 0 0 1 594.10742 881.02539 A 137.54012 137.54012 0 0 1 594.52734 880.13281 A 137.54012 137.54012 0 0 1 594.95508 879.24414 A 137.54012 137.54012 0 0 1 595.38867 878.35938 A 137.54012 137.54012 0 0 1 595.82812 877.47656 A 137.54012 137.54012 0 0 1 596.27539 876.59766 A 137.54012 137.54012 0 0 1 596.72656 875.7207 A 137.54012 137.54012 0 0 1 597.18555 874.84766 A 137.54012 137.54012 0 0 1 597.65234 873.97852 A 137.54012 137.54012 0 0 1 598.12305 873.11133 A 137.54012 137.54012 0 0 1 598.59961 872.25 A 137.54012 137.54012 0 0 1 599.08398 871.39062 A 137.54012 137.54012 0 0 1 599.57422 870.5332 A 137.54012 137.54012 0 0 1 600.07031 869.68164 A 137.54012 137.54012 0 0 1 600.57227 868.83203 A 137.54012 137.54012 0 0 1 601.08008 867.98828 A 137.54012 137.54012 0 0 1 601.59375 867.14648 A 137.54012 137.54012 0 0 1 602.11523 866.30859 A 137.54012 137.54012 0 0 1 602.64062 865.47461 A 137.54012 137.54012 0 0 1 603.17383 864.64453 A 137.54012 137.54012 0 0 1 603.71094 863.81836 A 137.54012 137.54012 0 0 1 604.25586 862.99609 A 137.54012 137.54012 0 0 1 604.80469 862.17578 A 137.54012 137.54012 0 0 1 605.36133 861.36133 A 137.54012 137.54012 0 0 1 605.92188 860.55078 A 137.54012 137.54012 0 0 1 606.49023 859.74414 A 137.54012 137.54012 0 0 1 607.0625 858.94141 A 137.54012 137.54012 0 0 1 607.64258 858.14453 A 137.54012 137.54012 0 0 1 608.22656 857.34961 A 137.54012 137.54012 0 0 1 608.81641 856.56055 A 137.54012 137.54012 0 0 1 609.41211 855.77344 A 137.54012 137.54012 0 0 1 610.01367 854.99219 A 137.54012 137.54012 0 0 1 610.62109 854.21484 A 137.54012 137.54012 0 0 1 611.23438 853.44336 A 137.54012 137.54012 0 0 1 611.85352 852.67383 A 137.54012 137.54012 0 0 1 612.47656 851.91016 A 137.54012 137.54012 0 0 1 613.10547 851.15039 A 137.54012 137.54012 0 0 1 613.74023 850.39648 A 137.54012 137.54012 0 0 1 614.38086 849.64648 A 137.54012 137.54012 0 0 1 615.02539 848.90039 A 137.54012 137.54012 0 0 1 615.67578 848.16016 A 137.54012 137.54012 0 0 1 616.33203 847.42383 A 137.54012 137.54012 0 0 1 616.99414 846.69141 A 137.54012 137.54012 0 0 1 617.66016 845.96484 A 137.54012 137.54012 0 0 1 618.33203 845.24219 A 137.54012 137.54012 0 0 1 619.00781 844.52539 A 137.54012 137.54012 0 0 1 619.69141 843.8125 A 137.54012 137.54012 0 0 1 620.37695 843.10547 A 137.54012 137.54012 0 0 1 621.07031 842.40234 A 137.54012 137.54012 0 0 1 621.76758 841.70508 A 137.54012 137.54012 0 0 1 622.46875 841.01367 A 137.54012 137.54012 0 0 1 623.17578 840.32617 A 137.54012 137.54012 0 0 1 623.88867 839.64258 A 137.54012 137.54012 0 0 1 624.60547 838.96484 A 137.54012 137.54012 0 0 1 625.32617 838.29297 A 137.54012 137.54012 0 0 1 626.05273 837.62695 A 137.54012 137.54012 0 0 1 626.78516 836.96484 A 137.54012 137.54012 0 0 1 627.52148 836.30859 A 137.54012 137.54012 0 0 1 628.26172 835.6582 A 137.54012 137.54012 0 0 1 629.00586 835.01172 A 137.54012 137.54012 0 0 1 629.75586 834.37109 A 137.54012 137.54012 0 0 1 630.51172 833.73633 A 137.54012 137.54012 0 0 1 631.26953 833.10742 A 137.54012 137.54012 0 0 1 632.0332 832.48242 A 137.54012 137.54012 0 0 1 632.80078 831.86328 A 137.54012 137.54012 0 0 1 633.57422 831.25 A 137.54012 137.54012 0 0 1 634.35156 830.64258 A 137.54012 137.54012 0 0 1 635.13281 830.04102 A 137.54012 137.54012 0 0 1 635.91797 829.44531 A 137.54012 137.54012 0 0 1 636.70703 828.85352 A 137.54012 137.54012 0 0 1 637.50195 828.26953 A 137.54012 137.54012 0 0 1 638.29883 827.68945 A 137.54012 137.54012 0 0 1 639.10156 827.11523 A 137.54012 137.54012 0 0 1 639.9082 826.54883 A 137.54012 137.54012 0 0 1 640.71875 825.98633 A 137.54012 137.54012 0 0 1 641.5332 825.42969 A 137.54012 137.54012 0 0 1 642.34961 824.87891 A 137.54012 137.54012 0 0 1 643.17188 824.33594 A 137.54012 137.54012 0 0 1 643.99805 823.79688 A 137.54012 137.54012 0 0 1 644.82812 823.26367 A 137.54012 137.54012 0 0 1 645.66211 822.73633 A 137.54012 137.54012 0 0 1 646.5 822.2168 A 137.54012 137.54012 0 0 1 647.3418 821.70117 A 137.54012 137.54012 0 0 1 648.18555 821.19336 A 137.54012 137.54012 0 0 1 649.03516 820.69141 A 137.54012 137.54012 0 0 1 649.88672 820.19336 A 137.54012 137.54012 0 0 1 650.74219 819.70312 A 137.54012 137.54012 0 0 1 651.60156 819.2207 A 137.54012 137.54012 0 0 1 652.46484 818.74219 A 137.54012 137.54012 0 0 1 653.33008 818.26953 A 137.54012 137.54012 0 0 1 654.19922 817.80469 A 137.54012 137.54012 0 0 1 655.07227 817.3457 A 137.54012 137.54012 0 0 1 655.94922 816.89258 A 137.54012 137.54012 0 0 1 656.82812 816.44531 A 137.54012 137.54012 0 0 1 657.70898 816.00391 A 137.54012 137.54012 0 0 1 658.5957 815.57031 A 137.54012 137.54012 0 0 1 659.48438 815.14258 A 137.54012 137.54012 0 0 1 660.375 814.7207 A 137.54012 137.54012 0 0 1 661.26953 814.30664 A 137.54012 137.54012 0 0 1 662.16797 813.89844 A 137.54012 137.54012 0 0 1 663.06836 813.49609 A 137.54012 137.54012 0 0 1 663.9707 813.09961 A 137.54012 137.54012 0 0 1 664.87695 812.71094 A 137.54012 137.54012 0 0 1 665.78711 812.32812 A 137.54012 137.54012 0 0 1 666.69727 811.95117 A 137.54012 137.54012 0 0 1 667.61328 811.58203 A 137.54012 137.54012 0 0 1 668.5293 811.21875 A 137.54012 137.54012 0 0 1 669.44922 810.86328 A 137.54012 137.54012 0 0 1 670.37109 810.51367 A 137.54012 137.54012 0 0 1 671.29492 810.16992 A 137.54012 137.54012 0 0 1 672.22266 809.83398 A 137.54012 137.54012 0 0 1 673.15234 809.50391 A 137.54012 137.54012 0 0 1 674.08398 809.17969 A 137.54012 137.54012 0 0 1 675.01758 808.86328 A 137.54012 137.54012 0 0 1 675.95312 808.55469 A 137.54012 137.54012 0 0 1 676.89258 808.25 A 137.54012 137.54012 0 0 1 677.83203 807.95508 A 137.54012 137.54012 0 0 1 678.77539 807.66406 A 137.54012 137.54012 0 0 1 679.7207 807.38281 A 137.54012 137.54012 0 0 1 680.66602 807.10547 A 137.54012 137.54012 0 0 1 681.61523 806.83594 A 137.54012 137.54012 0 0 1 682.56641 806.57422 A 137.54012 137.54012 0 0 1 683.51953 806.31836 A 137.54012 137.54012 0 0 1 684.47266 806.07031 A 137.54012 137.54012 0 0 1 685.42969 805.82812 A 137.54012 137.54012 0 0 1 686.38672 805.5918 A 137.54012 137.54012 0 0 1 687.3457 805.36328 A 137.54012 137.54012 0 0 1 688.30664 805.14258 A 137.54012 137.54012 0 0 1 689.26953 804.92773 A 137.54012 137.54012 0 0 1 690.23438 804.7207 A 137.54012 137.54012 0 0 1 691.19922 804.51953 A 137.54012 137.54012 0 0 1 692.16602 804.32617 A 137.54012 137.54012 0 0 1 693.13477 804.13867 A 137.54012 137.54012 0 0 1 694.10352 803.95898 A 137.54012 137.54012 0 0 1 695.07617 803.78711 A 137.54012 137.54012 0 0 1 696.04688 803.62109 A 137.54012 137.54012 0 0 1 697.02148 803.46289 A 137.54012 137.54012 0 0 1 697.99414 803.31055 A 137.54012 137.54012 0 0 1 698.9707 803.16602 A 137.54012 137.54012 0 0 1 699.94727 803.02734 A 137.54012 137.54012 0 0 1 700.92383 802.89648 A 137.54012 137.54012 0 0 1 701.90234 802.77148 A 137.54012 137.54012 0 0 1 702.88281 802.65625 A 137.54012 137.54012 0 0 1 703.86133 802.54492 A 137.54012 137.54012 0 0 1 704.84375 802.44336 A 137.54012 137.54012 0 0 1 705.82422 802.34766 A 137.54012 137.54012 0 0 1 706.80664 802.25781 A 137.54012 137.54012 0 0 1 707.78906 802.17578 A 137.54012 137.54012 0 0 1 708.77344 802.10156 A 137.54012 137.54012 0 0 1 709.75586 802.0332 A 137.54012 137.54012 0 0 1 710.74023 801.97266 A 137.54012 137.54012 0 0 1 711.72656 801.91992 A 137.54012 137.54012 0 0 1 712.71094 801.87305 A 137.54012 137.54012 0 0 1 713.69531 801.83398 A 137.54012 137.54012 0 0 1 714.68164 801.80078 A 137.54012 137.54012 0 0 1 715.66797 801.77539 A 137.54012 137.54012 0 0 1 716.6543 801.75781 A 137.54012 137.54012 0 0 1 717.64062 801.74609 A 137.54012 137.54012 0 0 1 718.625 801.74219 A 137.54012 137.54012 0 0 1 718.69922 801.74219 L 718.69922 793.41602 C 718.69922 793.28865 718.59612 793.18555 718.46875 793.18555 L 22.863281 793.18555 z "
       transform="scale(0.26458333)"
       inkscape:export-xdpi="197.12793"
       inkscape:export-ydpi="197.12793" />
    <path
       id="rect833"
       style="opacity:1;fill:#18a02d;fill-opacity:1;stroke-width:1.74542;stroke-linecap:round;stroke-linejoin:round;paint-order:stroke fill markers;filter:url(#filter1801)"
       d="m 190.15583,212.12786 a 36.390823,36.390823 0 0 0 -0.0196,0 36.390823,36.390823 0 0 0 -0.26046,0.001 36.390823,36.390823 0 0 0 -0.26096,0.003 36.390823,36.390823 0 0 0 -0.26097,0.005 36.390823,36.390823 0 0 0 -0.26096,0.007 36.390823,36.390823 0 0 0 -0.26097,0.009 36.390823,36.390823 0 0 0 -0.26045,0.0103 36.390823,36.390823 0 0 0 -0.26045,0.0124 36.390823,36.390823 0 0 0 -0.26096,0.0139 36.390823,36.390823 0 0 0 -0.26045,0.016 36.390823,36.390823 0 0 0 -0.25993,0.0181 36.390823,36.390823 0 0 0 -0.26045,0.0196 36.390823,36.390823 0 0 0 -0.25994,0.0217 36.390823,36.390823 0 0 0 -0.25993,0.0238 36.390823,36.390823 0 0 0 -0.25941,0.0253 36.390823,36.390823 0 0 0 -0.25994,0.0269 36.390823,36.390823 0 0 0 -0.2589,0.0294 36.390823,36.390823 0 0 0 -0.25941,0.0305 36.390823,36.390823 0 0 0 -0.2589,0.0331 36.390823,36.390823 0 0 0 -0.25838,0.0346 36.390823,36.390823 0 0 0 -0.25838,0.0367 36.390823,36.390823 0 0 0 -0.25839,0.0382 36.390823,36.390823 0 0 0 -0.25735,0.0403 36.390823,36.390823 0 0 0 -0.25786,0.0419 36.390823,36.390823 0 0 0 -0.25683,0.0439 36.390823,36.390823 0 0 0 -0.25735,0.0455 36.390823,36.390823 0 0 0 -0.25631,0.0475 36.390823,36.390823 0 0 0 -0.25632,0.0496 36.390823,36.390823 0 0 0 -0.2558,0.0512 36.390823,36.390823 0 0 0 -0.25528,0.0532 36.390823,36.390823 0 0 0 -0.25528,0.0548 36.390823,36.390823 0 0 0 -0.25477,0.0568 36.390823,36.390823 0 0 0 -0.25425,0.0584 36.390823,36.390823 0 0 0 -0.25373,0.0605 36.390823,36.390823 0 0 0 -0.25321,0.0625 36.390823,36.390823 0 0 0 -0.25321,0.0641 36.390823,36.390823 0 0 0 -0.25219,0.0656 36.390823,36.390823 0 0 0 -0.25218,0.0677 36.390823,36.390823 0 0 0 -0.25166,0.0693 36.390823,36.390823 0 0 0 -0.25115,0.0713 36.390823,36.390823 0 0 0 -0.25011,0.0734 36.390823,36.390823 0 0 0 -0.25012,0.0744 36.390823,36.390823 0 0 0 -0.24959,0.077 36.390823,36.390823 0 0 0 -0.24857,0.078 36.390823,36.390823 0 0 0 -0.24856,0.0806 36.390823,36.390823 0 0 0 -0.24753,0.0816 36.390823,36.390823 0 0 0 -0.24702,0.0837 36.390823,36.390823 0 0 0 -0.24649,0.0858 36.390823,36.390823 0 0 0 -0.24598,0.0873 36.390823,36.390823 0 0 0 -0.24546,0.0889 36.390823,36.390823 0 0 0 -0.24443,0.091 36.390823,36.390823 0 0 0 -0.24392,0.0925 36.390823,36.390823 0 0 0 -0.24339,0.0941 36.390823,36.390823 0 0 0 -0.24237,0.0961 36.390823,36.390823 0 0 0 -0.24236,0.0977 36.390823,36.390823 0 0 0 -0.24081,0.0997 36.390823,36.390823 0 0 0 -0.24081,0.10128 36.390823,36.390823 0 0 0 -0.23978,0.10284 36.390823,36.390823 0 0 0 -0.23875,0.1049 36.390823,36.390823 0 0 0 -0.23822,0.10646 36.390823,36.390823 0 0 0 -0.23772,0.108 36.390823,36.390823 0 0 0 -0.23667,0.10955 36.390823,36.390823 0 0 0 -0.23565,0.11163 36.390823,36.390823 0 0 0 -0.23513,0.11317 36.390823,36.390823 0 0 0 -0.23461,0.11472 36.390823,36.390823 0 0 0 -0.23306,0.11679 36.390823,36.390823 0 0 0 -0.23254,0.11834 36.390823,36.390823 0 0 0 -0.23203,0.11988 36.390823,36.390823 0 0 0 -0.23099,0.12145 36.390823,36.390823 0 0 0 -0.22996,0.12298 36.390823,36.390823 0 0 0 -0.22893,0.12506 36.390823,36.390823 0 0 0 -0.22841,0.12661 36.390823,36.390823 0 0 0 -0.22737,0.12764 36.390823,36.390823 0 0 0 -0.22635,0.12971 36.390823,36.390823 0 0 0 -0.22531,0.13177 36.390823,36.390823 0 0 0 -0.22479,0.13281 36.390823,36.390823 0 0 0 -0.22324,0.13436 36.390823,36.390823 0 0 0 -0.22273,0.13643 36.390823,36.390823 0 0 0 -0.22169,0.13746 36.390823,36.390823 0 0 0 -0.22066,0.13952 36.390823,36.390823 0 0 0 -0.21962,0.14108 36.390823,36.390823 0 0 0 -0.21859,0.14263 36.390823,36.390823 0 0 0 -0.21756,0.14366 36.390823,36.390823 0 0 0 -0.21601,0.14572 36.390823,36.390823 0 0 0 -0.21549,0.14728 36.390823,36.390823 0 0 0 -0.21446,0.14883 36.390823,36.390823 0 0 0 -0.21342,0.14986 36.390823,36.390823 0 0 0 -0.21239,0.15193 36.390823,36.390823 0 0 0 -0.21084,0.15348 36.390823,36.390823 0 0 0 -0.21032,0.15451 36.390823,36.390823 0 0 0 -0.20878,0.15658 36.390823,36.390823 0 0 0 -0.20774,0.15761 36.390823,36.390823 0 0 0 -0.2067,0.15917 36.390823,36.390823 0 0 0 -0.20567,0.16071 36.390823,36.390823 0 0 0 -0.20464,0.16226 36.390823,36.390823 0 0 0 -0.20309,0.16382 36.390823,36.390823 0 0 0 -0.20206,0.16536 36.390823,36.390823 0 0 0 -0.2005,0.1664 36.390823,36.390823 0 0 0 -0.19999,0.16795 36.390823,36.390823 0 0 0 -0.19843,0.1695 36.390823,36.390823 0 0 0 -0.19689,0.17105 36.390823,36.390823 0 0 0 -0.19586,0.17208 36.390823,36.390823 0 0 0 -0.19482,0.17363 36.390823,36.390823 0 0 0 -0.19378,0.17519 36.390823,36.390823 0 0 0 -0.19224,0.17621 36.390823,36.390823 0 0 0 -0.19068,0.17777 36.390823,36.390823 0 0 0 -0.18966,0.17932 36.390823,36.390823 0 0 0 -0.18862,0.18086 36.390823,36.390823 0 0 0 -0.18707,0.18191 36.390823,36.390823 0 0 0 -0.18551,0.18293 36.390823,36.390823 0 0 0 -0.18449,0.18448 36.390823,36.390823 0 0 0 -0.18345,0.18604 36.390823,36.390823 0 0 0 -0.18138,0.18707 36.390823,36.390823 0 0 0 -0.18087,0.18862 36.390823,36.390823 0 0 0 -0.1788,0.18965 36.390823,36.390823 0 0 0 -0.17777,0.1912 36.390823,36.390823 0 0 0 -0.17622,0.19224 36.390823,36.390823 0 0 0 -0.17518,0.19379 36.390823,36.390823 0 0 0 -0.17363,0.19482 36.390823,36.390823 0 0 0 -0.17208,0.19585 36.390823,36.390823 0 0 0 -0.17054,0.1974 36.390823,36.390823 0 0 0 -0.1695,0.19844 36.390823,36.390823 0 0 0 -0.16794,0.19947 36.390823,36.390823 0 0 0 -0.1664,0.20102 36.390823,36.390823 0 0 0 -0.16485,0.20206 36.390823,36.390823 0 0 0 -0.16381,0.2036 36.390823,36.390823 0 0 0 -0.16227,0.20412 36.390823,36.390823 0 0 0 -0.16071,0.20568 36.390823,36.390823 0 0 0 -0.15916,0.2067 36.390823,36.390823 0 0 0 -0.15762,0.20826 36.390823,36.390823 0 0 0 -0.15606,0.20877 36.390823,36.390823 0 0 0 -0.15451,0.21033 36.390823,36.390823 0 0 0 -0.15348,0.21084 36.390823,36.390823 0 0 0 -0.15142,0.21239 36.390823,36.390823 0 0 0 -0.15037,0.21342 36.390823,36.390823 0 0 0 -0.14831,0.21446 36.390823,36.390823 0 0 0 -0.14728,0.21549 36.390823,36.390823 0 0 0 -0.14521,0.21704 36.390823,36.390823 0 0 0 -0.14418,0.21756 36.390823,36.390823 0 0 0 -0.14211,0.21859 36.390823,36.390823 0 0 0 -0.14108,0.21962 36.390823,36.390823 0 0 0 -0.13901,0.22066 36.390823,36.390823 0 0 0 -0.13797,0.22169 36.390823,36.390823 0 0 0 -0.13591,0.22273 36.390823,36.390823 0 0 0 -0.13436,0.22324 36.390823,36.390823 0 0 0 -0.13281,0.22479 36.390823,36.390823 0 0 0 -0.13126,0.22531 36.390823,36.390823 0 0 0 -0.12971,0.22686 36.390823,36.390823 0 0 0 -0.12815,0.22738 36.390823,36.390823 0 0 0 -0.12609,0.22789 36.390823,36.390823 0 0 0 -0.12454,0.22945 36.390823,36.390823 0 0 0 -0.12351,0.22995 36.390823,36.390823 0 0 0 -0.12144,0.231 36.390823,36.390823 0 0 0 -0.11937,0.23203 36.390823,36.390823 0 0 0 -0.11834,0.23254 36.390823,36.390823 0 0 0 -0.11627,0.23358 36.390823,36.390823 0 0 0 -0.11472,0.23409 36.390823,36.390823 0 0 0 -0.11318,0.23513 36.390823,36.390823 0 0 0 -0.1111,0.23616 36.390823,36.390823 0 0 0 -0.11007,0.23668 36.390823,36.390823 0 0 0 -0.10801,0.23771 36.390823,36.390823 0 0 0 -0.10593,0.23823 36.390823,36.390823 0 0 0 -0.1049,0.23926 36.390823,36.390823 0 0 0 -0.10284,0.23978 36.390823,36.390823 0 0 0 -0.10077,0.24029 36.390823,36.390823 0 0 0 -0.0997,0.24133 36.390823,36.390823 0 0 0 -0.0971,0.24185 36.390823,36.390823 0 0 0 -0.0961,0.24288 36.390823,36.390823 0 0 0 -0.0941,0.24339 36.390823,36.390823 0 0 0 -0.0925,0.24392 36.390823,36.390823 0 0 0 -0.091,0.24443 36.390823,36.390823 0 0 0 -0.0889,0.24546 36.390823,36.390823 0 0 0 -0.0868,0.24598 36.390823,36.390823 0 0 0 -0.0858,0.2465 36.390823,36.390823 0 0 0 -0.0832,0.24701 36.390823,36.390823 0 0 0 -0.0822,0.24804 36.390823,36.390823 0 0 0 -0.0801,0.24805 36.390823,36.390823 0 0 0 -0.078,0.24908 36.390823,36.390823 0 0 0 -0.0765,0.2496 36.390823,36.390823 0 0 0 -0.0749,0.25011 36.390823,36.390823 0 0 0 -0.0729,0.25012 36.390823,36.390823 0 0 0 -0.0713,0.25114 36.390823,36.390823 0 0 0 -0.0692,0.25167 36.390823,36.390823 0 0 0 -0.0672,0.25218 36.390823,36.390823 0 0 0 -0.0661,0.25218 36.390823,36.390823 0 0 0 -0.0636,0.25321 36.390823,36.390823 0 0 0 -0.062,0.25322 36.390823,36.390823 0 0 0 -0.0605,0.25425 36.390823,36.390823 0 0 0 -0.0584,0.25425 36.390823,36.390823 0 0 0 -0.0568,0.25476 36.390823,36.390823 0 0 0 -0.0548,0.25477 36.390823,36.390823 0 0 0 -0.0527,0.25579 36.390823,36.390823 0 0 0 -0.0512,0.2558 36.390823,36.390823 0 0 0 -0.0491,0.25632 36.390823,36.390823 0 0 0 -0.0475,0.25631 36.390823,36.390823 0 0 0 -0.0455,0.25684 36.390823,36.390823 0 0 0 -0.0439,0.25734 36.390823,36.390823 0 0 0 -0.0419,0.25787 36.390823,36.390823 0 0 0 -0.0403,0.25735 36.390823,36.390823 0 0 0 -0.0382,0.25838 36.390823,36.390823 0 0 0 -0.0362,0.25838 36.390823,36.390823 0 0 0 -0.0346,0.25838 36.390823,36.390823 0 0 0 -0.0326,0.2589 36.390823,36.390823 0 0 0 -0.031,0.25942 36.390823,36.390823 0 0 0 -0.0289,0.25941 36.390823,36.390823 0 0 0 -0.0269,0.25942 36.390823,36.390823 0 0 0 -0.0253,0.25942 36.390823,36.390823 0 0 0 -0.0232,0.25993 36.390823,36.390823 0 0 0 -0.0212,0.25993 36.390823,36.390823 0 0 0 -0.0196,0.26045 36.390823,36.390823 0 0 0 -0.0181,0.26045 36.390823,36.390823 0 0 0 -0.016,0.26045 36.390823,36.390823 0 0 0 -0.014,0.26045 36.390823,36.390823 0 0 0 -0.0119,0.26045 36.390823,36.390823 0 0 0 -0.0103,0.26096 36.390823,36.390823 0 0 0 -0.008,0.26045 36.390823,36.390823 0 0 0 -0.007,0.26097 36.390823,36.390823 0 0 0 -0.005,0.26096 36.390823,36.390823 0 0 0 -0.003,0.26097 36.390823,36.390823 0 0 0 -5.2e-4,0.26096 36.390823,36.390823 0 0 0 0,0.0196 36.390823,36.390823 0 0 0 0.001,0.26045 36.390823,36.390823 0 0 0 0.003,0.26097 36.390823,36.390823 0 0 0 0.005,0.26096 36.390823,36.390823 0 0 0 0.007,0.26097 36.390823,36.390823 0 0 0 0.008,0.26097 36.390823,36.390823 0 0 0 0.0103,0.26044 36.390823,36.390823 0 0 0 0.0124,0.26097 36.390823,36.390823 0 0 0 0.0145,0.26045 36.390823,36.390823 0 0 0 0.016,0.26045 36.390823,36.390823 0 0 0 0.0176,0.25993 36.390823,36.390823 0 0 0 0.0196,0.26045 36.390823,36.390823 0 0 0 0.0217,0.25993 36.390823,36.390823 0 0 0 0.0238,0.25994 36.390823,36.390823 0 0 0 0.0253,0.25941 36.390823,36.390823 0 0 0 0.0274,0.25993 36.390823,36.390823 0 0 0 0.0289,0.2589 36.390823,36.390823 0 0 0 0.031,0.25942 36.390823,36.390823 0 0 0 0.0326,0.2589 36.390823,36.390823 0 0 0 0.0346,0.25838 36.390823,36.390823 0 0 0 0.0367,0.25838 36.390823,36.390823 0 0 0 0.0382,0.25838 36.390823,36.390823 0 0 0 0.0403,0.25735 36.390823,36.390823 0 0 0 0.0419,0.25787 36.390823,36.390823 0 0 0 0.0439,0.25683 36.390823,36.390823 0 0 0 0.046,0.25735 36.390823,36.390823 0 0 0 0.0475,0.25631 36.390823,36.390823 0 0 0 0.0491,0.25632 36.390823,36.390823 0 0 0 0.0517,0.2558 36.390823,36.390823 0 0 0 0.0527,0.25528 36.390823,36.390823 0 0 0 0.0553,0.25528 36.390823,36.390823 0 0 0 0.0563,0.25476 36.390823,36.390823 0 0 0 0.0589,0.25425 36.390823,36.390823 0 0 0 0.0605,0.25373 36.390823,36.390823 0 0 0 0.062,0.25322 36.390823,36.390823 0 0 0 0.0641,0.25321 36.390823,36.390823 0 0 0 0.0656,0.25218 36.390823,36.390823 0 0 0 0.0677,0.25219 36.390823,36.390823 0 0 0 0.0698,0.25166 36.390823,36.390823 0 0 0 0.0708,0.25115 36.390823,36.390823 0 0 0 0.0734,0.25011 36.390823,36.390823 0 0 0 0.0749,0.25011 36.390823,36.390823 0 0 0 0.0765,0.2496 36.390823,36.390823 0 0 0 0.0786,0.24856 36.390823,36.390823 0 0 0 0.0801,0.24857 36.390823,36.390823 0 0 0 0.0816,0.24753 36.390823,36.390823 0 0 0 0.0842,0.24701 36.390823,36.390823 0 0 0 0.0853,0.2465 36.390823,36.390823 0 0 0 0.0873,0.24598 36.390823,36.390823 0 0 0 0.0889,0.24546 36.390823,36.390823 0 0 0 0.0909,0.24443 36.390823,36.390823 0 0 0 0.0925,0.24391 36.390823,36.390823 0 0 0 0.0946,0.2434 36.390823,36.390823 0 0 0 0.0961,0.24236 36.390823,36.390823 0 0 0 0.0977,0.24237 36.390823,36.390823 0 0 0 0.0992,0.24081 36.390823,36.390823 0 0 0 0.10128,0.24081 36.390823,36.390823 0 0 0 0.10284,0.23978 36.390823,36.390823 0 0 0 0.1049,0.23874 36.390823,36.390823 0 0 0 0.10645,0.23823 36.390823,36.390823 0 0 0 0.10801,0.23771 36.390823,36.390823 0 0 0 0.11007,0.23668 36.390823,36.390823 0 0 0 0.1111,0.23565 36.390823,36.390823 0 0 0 0.11317,0.23512 36.390823,36.390823 0 0 0 0.11524,0.2346 36.390823,36.390823 0 0 0 0.11627,0.23308 36.390823,36.390823 0 0 0 0.11834,0.23254 36.390823,36.390823 0 0 0 0.11989,0.23204 36.390823,36.390823 0 0 0 0.12144,0.23098 36.390823,36.390823 0 0 0 0.12299,0.22995 36.390823,36.390823 0 0 0 0.12506,0.22894 36.390823,36.390823 0 0 0 0.12661,0.22842 36.390823,36.390823 0 0 0 0.12815,0.22735 36.390823,36.390823 0 0 0 0.12971,0.22636 36.390823,36.390823 0 0 0 0.13126,0.22531 36.390823,36.390823 0 0 0 0.13281,0.22479 36.390823,36.390823 0 0 0 0.13487,0.22323 36.390823,36.390823 0 0 0 0.13591,0.22273 36.390823,36.390823 0 0 0 0.13798,0.22169 36.390823,36.390823 0 0 0 0.13901,0.22067 36.390823,36.390823 0 0 0 0.14108,0.21963 36.390823,36.390823 0 0 0 0.14262,0.21857 36.390823,36.390823 0 0 0 0.14418,0.21757 36.390823,36.390823 0 0 0 0.14521,0.21653 36.390823,36.390823 0 0 0 0.14728,0.21498 36.390823,36.390823 0 0 0 0.14883,0.21444 36.390823,36.390823 0 0 0 0.15037,0.21344 36.390823,36.390823 0 0 0 0.15142,0.21238 36.390823,36.390823 0 0 0 0.15348,0.21135 36.390823,36.390823 0 0 0 0.15502,0.20981 36.390823,36.390823 0 0 0 0.15607,0.20879 36.390823,36.390823 0 0 0 0.15761,0.20772 36.390823,36.390823 0 0 0 0.15968,0.20672 36.390823,36.390823 0 0 0 0.16072,0.20566 36.390823,36.390823 0 0 0 0.16226,0.20463 36.390823,36.390823 0 0 0 0.1633,0.20309 36.390823,36.390823 0 0 0 0.16536,0.20207 36.390823,36.390823 0 0 0 0.1664,0.2005 36.390823,36.390823 0 0 0 0.16795,0.2 36.390823,36.390823 0 0 0 0.16949,0.19843 36.390823,36.390823 0 0 0 0.17106,0.19688 36.390823,36.390823 0 0 0 0.17208,0.19584 36.390823,36.390823 0 0 0 0.17363,0.19484 36.390823,36.390823 0 0 0 0.17518,0.19378 36.390823,36.390823 0 0 0 0.17674,0.19222 36.390823,36.390823 0 0 0 0.17776,0.19072 36.390823,36.390823 0 0 0 0.1788,0.18965 36.390823,36.390823 0 0 0 0.18087,0.18859 36.390823,36.390823 0 0 0 0.1819,0.18709 36.390823,36.390823 0 0 0 0.18294,0.1855 36.390823,36.390823 0 0 0 0.18448,0.18449 36.390823,36.390823 0 0 0 0.18604,0.18347 36.390823,36.390823 0 0 0 0.18707,0.18137 36.390823,36.390823 0 0 0 0.18862,0.18087 36.390823,36.390823 0 0 0 0.18965,0.1788 36.390823,36.390823 0 0 0 0.1912,0.17778 36.390823,36.390823 0 0 0 0.19224,0.17621 36.390823,36.390823 0 0 0 0.19378,0.17518 36.390823,36.390823 0 0 0 0.19482,0.17362 36.390823,36.390823 0 0 0 0.19586,0.17208 36.390823,36.390823 0 0 0 0.1974,0.17055 36.390823,36.390823 0 0 0 0.19844,0.1695 36.390823,36.390823 0 0 0 0.19999,0.16795 36.390823,36.390823 0 0 0 0.2005,0.1664 36.390823,36.390823 0 0 0 0.20257,0.16484 36.390823,36.390823 0 0 0 0.20309,0.1638 36.390823,36.390823 0 0 0 0.20464,0.16227 36.390823,36.390823 0 0 0 0.20515,0.16073 36.390823,36.390823 0 0 0 0.20723,0.15915 36.390823,36.390823 0 0 0 0.20774,0.15761 36.390823,36.390823 0 0 0 0.20877,0.15608 36.390823,36.390823 0 0 0 0.21032,0.15449 36.390823,36.390823 0 0 0 0.21136,0.15348 36.390823,36.390823 0 0 0 0.21239,0.15143 36.390823,36.390823 0 0 0 0.21342,0.15036 36.390823,36.390823 0 0 0 0.21446,0.14832 36.390823,36.390823 0 0 0 0.21549,0.14727 36.390823,36.390823 0 0 0 0.21653,0.14523 36.390823,36.390823 0 0 0 0.21755,0.14417 36.390823,36.390823 0 0 0 0.2186,0.14211 36.390823,36.390823 0 0 0 0.21962,0.14108 36.390823,36.390823 0 0 0 0.22066,0.13901 36.390823,36.390823 0 0 0 0.22169,0.13798 36.390823,36.390823 0 0 0 0.22273,0.13589 36.390823,36.390823 0 0 0 0.22375,0.13438 36.390823,36.390823 0 0 0 0.22428,0.13279 36.390823,36.390823 0 0 0 0.22582,0.13126 36.390823,36.390823 0 0 0 0.22635,0.1297 36.390823,36.390823 0 0 0 0.22738,0.12817 36.390823,36.390823 0 0 0 0.22841,0.1261 36.390823,36.390823 0 0 0 0.22892,0.12454 36.390823,36.390823 0 0 0 0.23048,0.1235 36.390823,36.390823 0 0 0 0.23047,0.12145 36.390823,36.390823 0 0 0 0.23203,0.11935 36.390823,36.390823 0 0 0 0.23255,0.11835 36.390823,36.390823 0 0 0 0.23357,0.11628 36.390823,36.390823 0 0 0 0.23461,0.1147 36.390823,36.390823 0 0 0 0.23513,0.11319 36.390823,36.390823 0 0 0 0.23565,0.1111 36.390823,36.390823 0 0 0 0.23719,0.11006 36.390823,36.390823 0 0 0 0.2372,0.10801 36.390823,36.390823 0 0 0 0.23823,0.10594 36.390823,36.390823 0 0 0 0.23926,0.1049 36.390823,36.390823 0 0 0 0.23977,0.10285 36.390823,36.390823 0 0 0 0.2403,0.10075 36.390823,36.390823 0 0 0 0.24133,0.0998 36.390823,36.390823 0 0 0 0.24236,0.0971 36.390823,36.390823 0 0 0 0.24237,0.0961 36.390823,36.390823 0 0 0 0.24339,0.0941 36.390823,36.390823 0 0 0 0.24391,0.0925 36.390823,36.390823 0 0 0 0.24495,0.091 36.390823,36.390823 0 0 0 0.24495,0.0889 36.390823,36.390823 0 0 0 0.24597,0.0868 36.390823,36.390823 0 0 0 0.2465,0.0858 36.390823,36.390823 0 0 0 0.24753,0.0832 36.390823,36.390823 0 0 0 0.24753,0.0822 36.390823,36.390823 0 0 0 0.24857,0.0801 36.390823,36.390823 0 0 0 0.24856,0.078 36.390823,36.390823 0 0 0 0.2496,0.0765 36.390823,36.390823 0 0 0 0.25011,0.0749 36.390823,36.390823 0 0 0 0.25063,0.0729 36.390823,36.390823 0 0 0 0.25063,0.0713 36.390823,36.390823 0 0 0 0.25167,0.0692 36.390823,36.390823 0 0 0 0.25218,0.0672 36.390823,36.390823 0 0 0 0.25269,0.0661 36.390823,36.390823 0 0 0 0.2527,0.0636 36.390823,36.390823 0 0 0 0.25373,0.062 36.390823,36.390823 0 0 0 0.25374,0.0605 36.390823,36.390823 0 0 0 0.25424,0.0584 36.390823,36.390823 0 0 0 0.25477,0.0568 36.390823,36.390823 0 0 0 0.25528,0.0548 36.390823,36.390823 0 0 0 0.25528,0.0527 36.390823,36.390823 0 0 0 0.2558,0.0512 36.390823,36.390823 0 0 0 0.25631,0.0491 36.390823,36.390823 0 0 0 0.25632,0.0475 36.390823,36.390823 0 0 0 0.25735,0.0455 36.390823,36.390823 0 0 0 0.25683,0.0439 36.390823,36.390823 0 0 0 0.25787,0.0419 36.390823,36.390823 0 0 0 0.25786,0.0403 36.390823,36.390823 0 0 0 0.25787,0.0382 36.390823,36.390823 0 0 0 0.25838,0.0362 36.390823,36.390823 0 0 0 0.2589,0.0346 36.390823,36.390823 0 0 0 0.2589,0.0326 36.390823,36.390823 0 0 0 0.2589,0.031 36.390823,36.390823 0 0 0 0.25941,0.0289 36.390823,36.390823 0 0 0 0.25942,0.0269 36.390823,36.390823 0 0 0 0.25993,0.0253 36.390823,36.390823 0 0 0 0.25993,0.0232 36.390823,36.390823 0 0 0 0.25993,0.0212 36.390823,36.390823 0 0 0 0.25994,0.0197 36.390823,36.390823 0 0 0 0.26045,0.0181 36.390823,36.390823 0 0 0 0.26044,0.016 36.390823,36.390823 0 0 0 0.26045,0.014 36.390823,36.390823 0 0 0 0.26097,0.0119 36.390823,36.390823 0 0 0 0.26045,0.0103 36.390823,36.390823 0 0 0 0.26097,0.008 36.390823,36.390823 0 0 0 0.26044,0.007 36.390823,36.390823 0 0 0 0.26097,0.005 36.390823,36.390823 0 0 0 0.26097,0.003 36.390823,36.390823 0 0 0 0.26096,5.3e-4 z"
       inkscape:export-xdpi="197.12793"
       inkscape:export-ydpi="197.12793" />
    <rect
       style="opacity:1;fill:#18a02d;fill-opacity:1;stroke-width:0.472933;stroke-linecap:round;stroke-linejoin:round;paint-order:stroke fill markers"
       id="rect835"
       width="5.6788874"
       height="5.6788874"
       x="6.0494795"
       y="209.86351"
       ry="0.016156131"
       inkscape:export-xdpi="197.12793"
       inkscape:export-ydpi="197.12793" />
    <path
       style="fill:#ffffff;fill-opacity:1;stroke:none;stroke-width:0.511137px;stroke-linecap:butt;stroke-linejoin:miter;stroke-opacity:1"
       d="m 132.23171,-166.50996 c 0,0 -16.96624,43.05286 27.96455,61.72005 20.52935,8.529242 32.35817,14.916467 37.81229,18.720684 3.44948,2.40591 5.04238,3.677568 5.04238,3.677568 17.40353,43.626386 0.0127,67.294776 0.50418,67.121656 L 23.025918,-106.8296 14.335527,-117.2845 c 21.727905,5.19511 35.43468,-1.82074 51.020827,-10.04743 11.320194,-5.97492 14.466814,-21.9319 10.249729,-27.50548 -11.960699,-15.80796 56.625627,-11.67255 56.625627,-11.67255 z"
       id="path1345"
       sodipodi:nodetypes="cssccccssc"
       inkscape:export-xdpi="110"
       inkscape:export-ydpi="110" />
    <path
       style="fill:#18bb2d;fill-opacity:1;stroke:none;stroke-width:0.511137px;stroke-linecap:butt;stroke-linejoin:miter;stroke-opacity:1"
       d="m 73.285461,-143.52412 38.404739,5.62101 c -5.3022,5.59226 -16.0179,14.95803 -42.385783,7.82789 3.761915,-5.04097 4.024481,-10.51683 3.981044,-13.4489 z"
       id="path1347"
       sodipodi:nodetypes="cccc"
       inkscape:export-xdpi="110"
       inkscape:export-ydpi="110" />
    <path
       id="path1349"
       style="opacity:1;fill:#ffffff;stroke:none;stroke-width:2.74186;stroke-linecap:round;stroke-linejoin:round;stroke-opacity:0.333687;paint-order:stroke fill markers"
       d="m 98.679772,-248.11913 c 39.395758,0 36.311028,26.64853 36.311028,26.64853 v 47.22127 c 0,16.46388 -13.21624,38.77784 -35.500389,38.77784 -32.68257,0 -41.026408,-24.64028 -39.24437,-39.14338 1.952002,-15.88646 0.533438,-31.52081 0,-47.22132 0,0 -0.519011,-26.28294 38.433731,-26.28294 z"
       sodipodi:nodetypes="sccsscs"
       inkscape:export-xdpi="110"
       inkscape:export-ydpi="110" />
    <path
       style="fill:none;stroke:#1a1a1a;stroke-width:2.60584;stroke-linecap:round;stroke-linejoin:round;stroke-miterlimit:4;stroke-dasharray:none;stroke-opacity:1"
       d="m 80.235934,-187.87334 c 3.327386,-4.12325 5.968579,-2.51007 8.50248,0"
       id="path1351"
       sodipodi:nodetypes="cc"
       inkscape:export-xdpi="110"
       inkscape:export-ydpi="110" />
    <path
       style="opacity:1;fill:none;stroke:#000000;stroke-width:2.40622;stroke-linecap:round;stroke-linejoin:round;stroke-opacity:1;paint-order:stroke fill markers"
       id="path1353"
       sodipodi:type="arc"
       sodipodi:cx="60.791645"
       sodipodi:cy="-188.04741"
       sodipodi:rx="11.889349"
       sodipodi:ry="14.291926"
       sodipodi:start="0.23078794"
       sodipodi:end="0.22778274"
       sodipodi:arc-type="arc"
       d="m 72.365765,-184.77821 a 11.889349,14.291926 0 0 1 -14.285048,10.64625 11.889349,14.291926 0 0 1 -8.867266,-17.16374 11.889349,14.291926 0 0 1 14.271725,-10.67204 11.889349,14.291926 0 0 1 8.88871,17.14771"
       sodipodi:open="true"
       transform="matrix(1,0,-0.03812497,0.99927298,0,0)"
       inkscape:export-xdpi="110"
       inkscape:export-ydpi="110" />
    <path
       style="fill:#cccccc;stroke:none;stroke-width:1.27442px;stroke-linecap:butt;stroke-linejoin:miter;stroke-opacity:1"
       d="m 87.72218,-231.29645 c 0,0 5.852574,17.6182 31.34107,16.2595 12.94871,-0.69022 15.91331,20.92943 15.91331,20.94404 0,0.0169 3.50069,-23.64281 3.50069,-23.64281 L 128.09892,-234.296 c 0,0 -22.12428,-4.75294 -25.26565,-3.34587 -3.141407,1.40704 -15.11109,6.34542 -15.11109,6.34542 z"
       id="path1355"
       sodipodi:nodetypes="cssccsc"
       inkscape:export-xdpi="110"
       inkscape:export-ydpi="110" />
    <path
       style="fill:#275278;fill-opacity:1;stroke:#1a1a1a;stroke-width:2.60584;stroke-linecap:round;stroke-linejoin:round;stroke-miterlimit:4;stroke-dasharray:none;stroke-opacity:1"
       d="m 113.71163,-188.10673 20.33091,-5.43663"
       id="path1357"
       sodipodi:nodetypes="cc"
       inkscape:export-xdpi="110"
       inkscape:export-ydpi="110" />
    <path
       style="opacity:1;fill:none;stroke:#000000;stroke-width:2.40622;stroke-linecap:round;stroke-linejoin:round;stroke-opacity:1;paint-order:stroke fill markers"
       id="path1359"
       sodipodi:type="arc"
       sodipodi:cx="93.844131"
       sodipodi:cy="-188.04741"
       sodipodi:rx="11.889349"
       sodipodi:ry="14.291926"
       sodipodi:start="0.23078794"
       sodipodi:end="0.22778274"
       sodipodi:arc-type="arc"
       d="m 105.41825,-184.77821 a 11.889349,14.291926 0 0 1 -14.285047,10.64625 11.889349,14.291926 0 0 1 -8.867265,-17.16374 11.889349,14.291926 0 0 1 14.271725,-10.67204 11.889349,14.291926 0 0 1 8.888707,17.14771"
       sodipodi:open="true"
       transform="matrix(1,0,-0.03812497,0.99927298,0,0)"
       inkscape:export-xdpi="110"
       inkscape:export-ydpi="110" />
    <path
       style="fill:#333333;fill-opacity:1;stroke:none;stroke-width:0.472384px;stroke-linecap:butt;stroke-linejoin:miter;stroke-opacity:1"
       d="m 73.02004,-243.33316 c 0,0 2.451592,13.22272 11.357451,14.20855 8.905843,0.98579 8.959298,-0.84317 3.344693,-2.17184 -5.614546,-1.32863 -8.298549,-1.04361 -10.254774,-5.36217 -1.956216,-4.31852 -2.251525,-10.81903 -2.251525,-10.81903 z"
       id="path1361"
       inkscape:export-xdpi="110"
       inkscape:export-ydpi="110" />
    <path
       style="fill:#1a1a1a;stroke:none;stroke-width:1.27442px;stroke-linecap:butt;stroke-linejoin:miter;stroke-opacity:1"
       d="m 61.166454,-201.40675 c 0,0 -10.362769,-24.30286 -2.618985,-36.59456 5.697888,-6.21377 10.046608,-6.9596 10.046608,-6.9596 0,0 -4.291482,-4.54375 0.576986,-12.96575 4.868485,-8.42201 18.720962,-10.8251 26.801595,-6.86299 8.080602,3.96213 8.749342,11.29335 17.656502,8.81021 8.90711,-2.48314 17.14702,-3.5979 21.48511,4.24534 4.33805,7.84322 1.10744,19.92644 8.08047,19.5179 6.97311,-0.40875 17.27468,4.98248 12.58743,17.04591 -4.68728,12.06352 -5.79591,13.7477 -8.89911,35.82798 -3.1032,22.08023 -14.59874,25.45842 -13.62486,17.70914 0.97393,-7.74936 0.97393,-18.4881 0.97393,-18.4881 0,0 1.70451,-17.86773 0,-26.55307 -1.3352,-6.80326 4.47495,-19.5345 -7.8611,-19.25634 -12.3363,0.27787 -26.762823,4.38066 -38.648651,-5.36577 -11.885833,-9.74639 -11.480801,-9.93577 -11.480801,-9.93577 0,0 -8.939788,2.3979 -11.765012,9.55464 -1.403687,3.55574 -1.45508,13.56348 -2.946841,23.75399 z"
       id="path1363"
       sodipodi:nodetypes="cccsssssssscasscscc"
       inkscape:export-xdpi="110"
       inkscape:export-ydpi="110" />
    <path
       style="fill:#ffffff;fill-opacity:1;stroke:none;stroke-width:1.27442px;stroke-linecap:butt;stroke-linejoin:miter;stroke-opacity:1"
       d="m 134.9908,-194.35976 c -0.12665,-0.93318 3.43096,-10.00283 6.7847,-6.66992 4.13973,4.11393 4.76561,9.65638 2.713,14.40703 -3.04012,7.03627 -10.06856,7.02272 -10.25663,6.50138 -1.86521,-5.1708 -0.66285,-9.72661 0.75893,-14.23849 z"
       id="path1365"
       sodipodi:nodetypes="csssc"
       inkscape:export-xdpi="110"
       inkscape:export-ydpi="110" />
    <path
       style="opacity:0.287431;fill:none;stroke:#000000;stroke-width:1.27442px;stroke-linecap:round;stroke-linejoin:round;stroke-opacity:1"
       d="m 139.93918,-186.52065 c 0.46356,-4.05646 2.89353,-5.89943 5.54909,-6.43373"
       id="path1367"
       sodipodi:nodetypes="cc"
       inkscape:export-xdpi="110"
       inkscape:export-ydpi="110" />
    <path
       style="fill:none;stroke:#000000;stroke-width:2.29488;stroke-linecap:round;stroke-linejoin:round;stroke-miterlimit:4;stroke-dasharray:none;stroke-opacity:1"
       d="m 95.50431,-156.71177 c 0,0 -1.273988,4.08738 -7.512147,5.2043 -4.943191,0.88511 -8.067231,-2.23139 -8.067231,-2.23139"
       id="path1369"
       sodipodi:nodetypes="csc"
       inkscape:export-xdpi="110"
       inkscape:export-ydpi="110" />
    <path
       style="fill:#11202a;fill-opacity:1;stroke:none;stroke-width:0.511137px;stroke-linecap:butt;stroke-linejoin:miter;stroke-opacity:1"
       d="m 65.356354,-127.33193 c 18.846107,16.6716 40.063526,27.927823 74.080336,8.28179 7.62953,8.23626 17.64751,13.16012 28.53955,17.38528 16.73577,6.491977 26.46699,8.262142 35.07469,19.273202 13.03507,16.674732 5.47043,42.777746 7.98918,67.777186 -75.43263,-7.62123 -144.141094,-33.63767 -196.704583,-102.670028 0.0038,0.002 34.636015,-1.7204 51.020827,-10.04743 z"
       id="path1371"
       sodipodi:nodetypes="ccssccc"
       inkscape:export-xdpi="110"
       inkscape:export-ydpi="110" />
    <path
       style="opacity:1;fill:#333333;fill-opacity:1;stroke:none;stroke-width:1.89673;stroke-linecap:round;stroke-linejoin:round;stroke-miterlimit:4;stroke-dasharray:none;stroke-opacity:1;paint-order:stroke fill markers"
       id="path1373"
       sodipodi:type="arc"
       sodipodi:cx="67.960915"
       sodipodi:cy="-187.91075"
       sodipodi:rx="2.8429465"
       sodipodi:ry="2.8429465"
       sodipodi:start="1.578467"
       sodipodi:end="1.5707963"
       sodipodi:open="true"
       sodipodi:arc-type="arc"
       d="m 67.939108,-185.06789 a 2.8429465,2.8429465 0 0 1 -2.821093,-2.85922 2.8429465,2.8429465 0 0 1 2.853803,-2.82657 2.8429465,2.8429465 0 0 1 2.832038,2.84838 2.8429465,2.8429465 0 0 1 -2.842941,2.8375"
       inkscape:export-xdpi="110"
       inkscape:export-ydpi="110" />
    <path
       style="opacity:1;fill:#333333;fill-opacity:1;stroke:none;stroke-width:1.89673;stroke-linecap:round;stroke-linejoin:round;stroke-miterlimit:4;stroke-dasharray:none;stroke-opacity:1;paint-order:stroke fill markers"
       id="path1375"
       sodipodi:type="arc"
       sodipodi:cx="98.170471"
       sodipodi:cy="-187.91075"
       sodipodi:rx="2.8429465"
       sodipodi:ry="2.8429465"
       sodipodi:start="1.578467"
       sodipodi:end="1.5707963"
       sodipodi:open="true"
       sodipodi:arc-type="arc"
       d="m 98.148664,-185.06789 a 2.8429465,2.8429465 0 0 1 -2.821092,-2.85922 2.8429465,2.8429465 0 0 1 2.853803,-2.82657 2.8429465,2.8429465 0 0 1 2.832035,2.84838 2.8429465,2.8429465 0 0 1 -2.842939,2.8375"
       inkscape:export-xdpi="110"
       inkscape:export-ydpi="110" />
    <path
       style="opacity:1;fill:#18bb2d;fill-opacity:1;stroke:none;stroke-width:2.78156;stroke-linecap:round;stroke-linejoin:round;stroke-opacity:0.333687;paint-order:stroke fill markers;filter:url(#filter1343)"
       id="path1377"
       sodipodi:type="arc"
       sodipodi:cx="-294.71271"
       sodipodi:cy="-231.79807"
       sodipodi:rx="280.86633"
       sodipodi:ry="280.86633"
       sodipodi:start="0"
       sodipodi:end="1.5707963"
       sodipodi:arc-type="slice"
       d="M -13.846375,-231.79807 A 280.86633,280.86633 0 0 1 -294.71271,49.068268 V -231.79807 Z"
       transform="rotate(90,325.42745,386.03294)"
       inkscape:export-xdpi="110"
       inkscape:export-ydpi="110" />
    <path
       style="fill:#ffffff;fill-opacity:1;stroke:none;stroke-width:0.511137px;stroke-linecap:butt;stroke-linejoin:miter;stroke-opacity:1"
       d="m 843.6921,-105.90447 c 0,0 -16.96624,43.052863 27.96455,61.720053 20.52935,8.529242 32.35817,14.916467 37.81229,18.720684 3.44948,2.40591 5.04238,3.677568 5.04238,3.677568 17.40353,43.626386 0.0127,67.294776 0.50418,67.121656 l -180.52919,-91.559598 -8.69039,-10.4549 c 21.7279,5.19511 35.43468,-1.82074 51.02082,-10.04743 11.3202,-5.97492 14.46682,-21.9319 10.24973,-27.50548 -11.9607,-15.807963 56.62563,-11.672553 56.62563,-11.672553 z"
       id="path1379"
       sodipodi:nodetypes="cssccccssc"
       inkscape:export-xdpi="110"
       inkscape:export-ydpi="110" />
    <path
       style="fill:#18bb2d;fill-opacity:1;stroke:none;stroke-width:0.511137px;stroke-linecap:butt;stroke-linejoin:miter;stroke-opacity:1"
       d="m 784.74585,-82.918627 38.40474,5.62101 c -5.3022,5.59226 -16.0179,14.95803 -42.38578,7.82789 3.76191,-5.04097 4.02448,-10.51683 3.98104,-13.4489 z"
       id="path1381"
       sodipodi:nodetypes="cccc"
       inkscape:export-xdpi="110"
       inkscape:export-ydpi="110" />
    <path
       id="path1383"
       style="opacity:1;fill:#ffffff;stroke:none;stroke-width:2.74186;stroke-linecap:round;stroke-linejoin:round;stroke-opacity:0.333687;paint-order:stroke fill markers"
       d="m 810.14016,-187.51364 c 39.39576,0 36.31103,26.64853 36.31103,26.64853 v 47.22127 c 0,16.463883 -13.21624,38.777843 -35.50039,38.777843 -32.68257,0 -41.02641,-24.64028 -39.24437,-39.143383 1.952,-15.88646 0.53344,-31.52081 0,-47.22132 0,0 -0.51901,-26.28294 38.43373,-26.28294 z"
       sodipodi:nodetypes="sccsscs"
       inkscape:export-xdpi="110"
       inkscape:export-ydpi="110" />
    <path
       style="fill:none;stroke:#1a1a1a;stroke-width:2.60584;stroke-linecap:round;stroke-linejoin:round;stroke-miterlimit:4;stroke-dasharray:none;stroke-opacity:1"
       d="m 791.69632,-127.26785 c 3.32739,-4.12325 5.96858,-2.51007 8.50248,0"
       id="path1385"
       sodipodi:nodetypes="cc"
       inkscape:export-xdpi="110"
       inkscape:export-ydpi="110" />
    <path
       style="opacity:1;fill:none;stroke:#000000;stroke-width:2.40622;stroke-linecap:round;stroke-linejoin:round;stroke-opacity:1;paint-order:stroke fill markers"
       id="path1387"
       sodipodi:type="arc"
       sodipodi:cx="774.56427"
       sodipodi:cy="-127.39782"
       sodipodi:rx="11.889349"
       sodipodi:ry="14.291926"
       sodipodi:start="0.23078794"
       sodipodi:end="0.22778274"
       sodipodi:arc-type="arc"
       d="m 786.13839,-124.12862 a 11.889349,14.291926 0 0 1 -14.28505,10.64625 11.889349,14.291926 0 0 1 -8.86726,-17.16374 11.889349,14.291926 0 0 1 14.27172,-10.67204 11.889349,14.291926 0 0 1 8.88871,17.14771"
       sodipodi:open="true"
       transform="matrix(1,0,-0.03812497,0.99927298,0,0)"
       inkscape:export-xdpi="110"
       inkscape:export-ydpi="110" />
    <path
       style="fill:#cccccc;stroke:none;stroke-width:1.27442px;stroke-linecap:butt;stroke-linejoin:miter;stroke-opacity:1"
       d="m 799.18257,-170.69096 c 0,0 5.85257,17.6182 31.34107,16.2595 12.94871,-0.69022 15.91331,20.92943 15.91331,20.94404 0,0.0169 3.50069,-23.64281 3.50069,-23.64281 l -10.37833,-16.56028 c 0,0 -22.12428,-4.75294 -25.26565,-3.34587 -3.14141,1.40704 -15.11109,6.34542 -15.11109,6.34542 z"
       id="path1389"
       sodipodi:nodetypes="cssccsc"
       inkscape:export-xdpi="110"
       inkscape:export-ydpi="110" />
    <path
       style="fill:#275278;fill-opacity:1;stroke:#1a1a1a;stroke-width:2.60584;stroke-linecap:round;stroke-linejoin:round;stroke-miterlimit:4;stroke-dasharray:none;stroke-opacity:1"
       d="m 825.17202,-127.50124 20.33091,-5.43663"
       id="path1391"
       sodipodi:nodetypes="cc"
       inkscape:export-xdpi="110"
       inkscape:export-ydpi="110" />
    <path
       style="opacity:1;fill:none;stroke:#000000;stroke-width:2.40622;stroke-linecap:round;stroke-linejoin:round;stroke-opacity:1;paint-order:stroke fill markers"
       id="path1393"
       sodipodi:type="arc"
       sodipodi:cx="807.61676"
       sodipodi:cy="-127.39782"
       sodipodi:rx="11.889349"
       sodipodi:ry="14.291926"
       sodipodi:start="0.23078794"
       sodipodi:end="0.22778274"
       sodipodi:arc-type="arc"
       d="m 819.19088,-124.12862 a 11.889349,14.291926 0 0 1 -14.28505,10.64625 11.889349,14.291926 0 0 1 -8.86726,-17.16374 11.889349,14.291926 0 0 1 14.27172,-10.67204 11.889349,14.291926 0 0 1 8.88871,17.14771"
       sodipodi:open="true"
       transform="matrix(1,0,-0.03812497,0.99927298,0,0)"
       inkscape:export-xdpi="110"
       inkscape:export-ydpi="110" />
    <path
       style="fill:#333333;fill-opacity:1;stroke:none;stroke-width:0.472384px;stroke-linecap:butt;stroke-linejoin:miter;stroke-opacity:1"
       d="m 784.48043,-182.72767 c 0,0 2.45159,13.22272 11.35745,14.20855 8.90584,0.98579 8.9593,-0.84317 3.34469,-2.17184 -5.61454,-1.32863 -8.29855,-1.04361 -10.25477,-5.36217 -1.95622,-4.31852 -2.25153,-10.81903 -2.25153,-10.81903 z"
       id="path1395"
       inkscape:export-xdpi="110"
       inkscape:export-ydpi="110" />
    <path
       style="fill:#1a1a1a;stroke:none;stroke-width:1.27442px;stroke-linecap:butt;stroke-linejoin:miter;stroke-opacity:1"
       d="m 772.62684,-140.80126 c 0,0 -10.36277,-24.30286 -2.61898,-36.59456 5.69789,-6.21377 10.04661,-6.9596 10.04661,-6.9596 0,0 -4.29149,-4.54375 0.57698,-12.96575 4.86849,-8.42201 18.72096,-10.8251 26.8016,-6.86299 8.0806,3.96213 8.74934,11.29335 17.6565,8.81021 8.90711,-2.48314 17.14702,-3.5979 21.48511,4.24534 4.33805,7.84322 1.10744,19.92644 8.08047,19.5179 6.97311,-0.40875 17.27468,4.98248 12.58743,17.04591 -4.68728,12.06352 -5.79591,13.7477 -8.89911,35.82798 -3.1032,22.080233 -14.59874,25.458423 -13.62486,17.70914 0.97393,-7.74936 0.97393,-18.4881 0.97393,-18.4881 0,0 1.70451,-17.86773 0,-26.55307 -1.3352,-6.80326 4.47495,-19.5345 -7.8611,-19.25634 -12.3363,0.27787 -26.76282,4.38066 -38.64865,-5.36577 -11.88583,-9.74639 -11.4808,-9.93577 -11.4808,-9.93577 0,0 -8.93979,2.3979 -11.76501,9.55464 -1.40369,3.55574 -1.45508,13.56348 -2.94685,23.75399 z"
       id="path1397"
       sodipodi:nodetypes="cccsssssssscasscscc"
       inkscape:export-xdpi="110"
       inkscape:export-ydpi="110" />
    <path
       style="fill:#ffffff;fill-opacity:1;stroke:none;stroke-width:1.27442px;stroke-linecap:butt;stroke-linejoin:miter;stroke-opacity:1"
       d="m 846.45119,-133.75427 c -0.12665,-0.93318 3.43096,-10.00283 6.7847,-6.66992 4.13973,4.11393 4.76561,9.65638 2.713,14.40703 -3.04012,7.03627 -10.06856,7.02272 -10.25663,6.50138 -1.86521,-5.1708 -0.66285,-9.72661 0.75893,-14.23849 z"
       id="path1399"
       sodipodi:nodetypes="csssc"
       inkscape:export-xdpi="110"
       inkscape:export-ydpi="110" />
    <path
       style="opacity:0.287431;fill:none;stroke:#000000;stroke-width:1.27442px;stroke-linecap:round;stroke-linejoin:round;stroke-opacity:1"
       d="m 851.39957,-125.91516 c 0.46356,-4.05646 2.89353,-5.89943 5.54909,-6.43373"
       id="path1401"
       sodipodi:nodetypes="cc"
       inkscape:export-xdpi="110"
       inkscape:export-ydpi="110" />
    <path
       style="fill:none;stroke:#000000;stroke-width:2.29488;stroke-linecap:round;stroke-linejoin:round;stroke-miterlimit:4;stroke-dasharray:none;stroke-opacity:1"
       d="m 806.9647,-96.106277 c 0,0 -1.27399,4.08738 -7.51215,5.2043 -4.94319,0.88511 -8.06723,-2.23139 -8.06723,-2.23139"
       id="path1403"
       sodipodi:nodetypes="csc"
       inkscape:export-xdpi="110"
       inkscape:export-ydpi="110" />
    <path
       style="fill:#11202a;fill-opacity:1;stroke:none;stroke-width:0.511137px;stroke-linecap:butt;stroke-linejoin:miter;stroke-opacity:1"
       d="m 776.81674,-66.726437 c 18.84611,16.6716 40.06353,27.927823 74.08034,8.28179 7.62953,8.23626 17.64751,13.16012 28.53955,17.38528 16.73577,6.491977 26.46699,8.262142 35.07469,19.273202 13.03507,16.6747315 5.47043,42.777746 7.98918,67.777186 -75.43263,-7.62123 -144.14109,-33.63767 -196.70458,-102.670028 0.004,0.002 34.63601,-1.7204 51.02082,-10.04743 z"
       id="path1405"
       sodipodi:nodetypes="ccssccc"
       inkscape:export-xdpi="110"
       inkscape:export-ydpi="110" />
    <path
       style="opacity:1;fill:#333333;fill-opacity:1;stroke:none;stroke-width:1.89673;stroke-linecap:round;stroke-linejoin:round;stroke-miterlimit:4;stroke-dasharray:none;stroke-opacity:1;paint-order:stroke fill markers"
       id="path1407"
       sodipodi:type="arc"
       sodipodi:cx="779.42133"
       sodipodi:cy="-127.30526"
       sodipodi:rx="2.8429465"
       sodipodi:ry="2.8429465"
       sodipodi:start="1.578467"
       sodipodi:end="1.5707963"
       sodipodi:open="true"
       sodipodi:arc-type="arc"
       d="m 779.39952,-124.4624 a 2.8429465,2.8429465 0 0 1 -2.82109,-2.85922 2.8429465,2.8429465 0 0 1 2.8538,-2.82657 2.8429465,2.8429465 0 0 1 2.83204,2.84838 2.8429465,2.8429465 0 0 1 -2.84294,2.8375"
       inkscape:export-xdpi="110"
       inkscape:export-ydpi="110" />
    <path
       style="opacity:1;fill:#333333;fill-opacity:1;stroke:none;stroke-width:1.89673;stroke-linecap:round;stroke-linejoin:round;stroke-miterlimit:4;stroke-dasharray:none;stroke-opacity:1;paint-order:stroke fill markers"
       id="path1409"
       sodipodi:type="arc"
       sodipodi:cx="809.63086"
       sodipodi:cy="-127.30526"
       sodipodi:rx="2.8429465"
       sodipodi:ry="2.8429465"
       sodipodi:start="1.578467"
       sodipodi:end="1.5707963"
       sodipodi:open="true"
       sodipodi:arc-type="arc"
       d="m 809.60905,-124.4624 a 2.8429465,2.8429465 0 0 1 -2.82109,-2.85922 2.8429465,2.8429465 0 0 1 2.8538,-2.82657 2.8429465,2.8429465 0 0 1 2.83204,2.84838 2.8429465,2.8429465 0 0 1 -2.84294,2.8375"
       inkscape:export-xdpi="110"
       inkscape:export-ydpi="110" />
    <path
       style="fill:#ffffff;fill-opacity:1;stroke:none;stroke-width:0.511137px;stroke-linecap:butt;stroke-linejoin:miter;stroke-opacity:1"
       d="m 843.6921,-105.90447 c 0,0 -16.96624,43.052863 27.96455,61.720053 20.52935,8.529242 32.35817,14.916467 37.81229,18.720684 3.44948,2.40591 5.04238,3.677568 5.04238,3.677568 17.40353,43.626386 0.0127,67.294776 0.50418,67.121656 l -180.52919,-91.559598 -8.69039,-10.4549 c 21.7279,5.19511 35.43468,-1.82074 51.02082,-10.04743 11.3202,-5.97492 14.46682,-21.9319 10.24973,-27.50548 -11.9607,-15.807963 56.62563,-11.672553 56.62563,-11.672553 z"
       id="path1411"
       sodipodi:nodetypes="cssccccssc"
       inkscape:export-xdpi="110"
       inkscape:export-ydpi="110" />
    <path
       style="fill:#18bb2d;fill-opacity:1;stroke:none;stroke-width:0.511137px;stroke-linecap:butt;stroke-linejoin:miter;stroke-opacity:1"
       d="m 784.74585,-82.918627 38.40474,5.62101 c -5.3022,5.59226 -16.0179,14.95803 -42.38578,7.82789 3.76191,-5.04097 4.02448,-10.51683 3.98104,-13.4489 z"
       id="path1413"
       sodipodi:nodetypes="cccc"
       inkscape:export-xdpi="110"
       inkscape:export-ydpi="110" />
    <path
       id="path1415"
       style="opacity:1;fill:#ffffff;stroke:none;stroke-width:2.74186;stroke-linecap:round;stroke-linejoin:round;stroke-opacity:0.333687;paint-order:stroke fill markers"
       d="m 810.14016,-187.51364 c 39.39576,0 36.31103,26.64853 36.31103,26.64853 v 47.22127 c 0,16.463883 -13.21624,38.777843 -35.50039,38.777843 -32.68257,0 -41.02641,-24.64028 -39.24437,-39.143383 1.952,-15.88646 0.53344,-31.52081 0,-47.22132 0,0 -0.51901,-26.28294 38.43373,-26.28294 z"
       sodipodi:nodetypes="sccsscs"
       inkscape:export-xdpi="110"
       inkscape:export-ydpi="110" />
    <path
       style="fill:none;stroke:#1a1a1a;stroke-width:2.60584;stroke-linecap:round;stroke-linejoin:round;stroke-miterlimit:4;stroke-dasharray:none;stroke-opacity:1"
       d="m 791.69632,-127.26785 c 3.32739,-4.12325 5.96858,-2.51007 8.50248,0"
       id="path1417"
       sodipodi:nodetypes="cc"
       inkscape:export-xdpi="110"
       inkscape:export-ydpi="110" />
    <path
       style="opacity:1;fill:none;stroke:#000000;stroke-width:2.40622;stroke-linecap:round;stroke-linejoin:round;stroke-opacity:1;paint-order:stroke fill markers"
       id="path1419"
       sodipodi:type="arc"
       sodipodi:cx="774.56427"
       sodipodi:cy="-127.39782"
       sodipodi:rx="11.889349"
       sodipodi:ry="14.291926"
       sodipodi:start="0.23078794"
       sodipodi:end="0.22778274"
       sodipodi:arc-type="arc"
       d="m 786.13839,-124.12862 a 11.889349,14.291926 0 0 1 -14.28505,10.64625 11.889349,14.291926 0 0 1 -8.86726,-17.16374 11.889349,14.291926 0 0 1 14.27172,-10.67204 11.889349,14.291926 0 0 1 8.88871,17.14771"
       sodipodi:open="true"
       transform="matrix(1,0,-0.03812497,0.99927298,0,0)"
       inkscape:export-xdpi="110"
       inkscape:export-ydpi="110" />
    <path
       style="fill:#cccccc;stroke:none;stroke-width:1.27442px;stroke-linecap:butt;stroke-linejoin:miter;stroke-opacity:1"
       d="m 799.18257,-170.69096 c 0,0 5.85257,17.6182 31.34107,16.2595 12.94871,-0.69022 15.91331,20.92943 15.91331,20.94404 0,0.0169 3.50069,-23.64281 3.50069,-23.64281 l -10.37833,-16.56028 c 0,0 -22.12428,-4.75294 -25.26565,-3.34587 -3.14141,1.40704 -15.11109,6.34542 -15.11109,6.34542 z"
       id="path1421"
       sodipodi:nodetypes="cssccsc"
       inkscape:export-xdpi="110"
       inkscape:export-ydpi="110" />
    <path
       style="fill:#275278;fill-opacity:1;stroke:#1a1a1a;stroke-width:2.60584;stroke-linecap:round;stroke-linejoin:round;stroke-miterlimit:4;stroke-dasharray:none;stroke-opacity:1"
       d="m 825.17202,-127.50124 20.33091,-5.43663"
       id="path1423"
       sodipodi:nodetypes="cc"
       inkscape:export-xdpi="110"
       inkscape:export-ydpi="110" />
    <path
       style="opacity:1;fill:none;stroke:#000000;stroke-width:2.40622;stroke-linecap:round;stroke-linejoin:round;stroke-opacity:1;paint-order:stroke fill markers"
       id="path1425"
       sodipodi:type="arc"
       sodipodi:cx="807.61676"
       sodipodi:cy="-127.39782"
       sodipodi:rx="11.889349"
       sodipodi:ry="14.291926"
       sodipodi:start="0.23078794"
       sodipodi:end="0.22778274"
       sodipodi:arc-type="arc"
       d="m 819.19088,-124.12862 a 11.889349,14.291926 0 0 1 -14.28505,10.64625 11.889349,14.291926 0 0 1 -8.86726,-17.16374 11.889349,14.291926 0 0 1 14.27172,-10.67204 11.889349,14.291926 0 0 1 8.88871,17.14771"
       sodipodi:open="true"
       transform="matrix(1,0,-0.03812497,0.99927298,0,0)"
       inkscape:export-xdpi="110"
       inkscape:export-ydpi="110" />
    <path
       style="fill:#333333;fill-opacity:1;stroke:none;stroke-width:0.472384px;stroke-linecap:butt;stroke-linejoin:miter;stroke-opacity:1"
       d="m 784.48043,-182.72767 c 0,0 2.45159,13.22272 11.35745,14.20855 8.90584,0.98579 8.9593,-0.84317 3.34469,-2.17184 -5.61454,-1.32863 -8.29855,-1.04361 -10.25477,-5.36217 -1.95622,-4.31852 -2.25153,-10.81903 -2.25153,-10.81903 z"
       id="path1427"
       inkscape:export-xdpi="110"
       inkscape:export-ydpi="110" />
    <path
       style="fill:#1a1a1a;stroke:none;stroke-width:1.27442px;stroke-linecap:butt;stroke-linejoin:miter;stroke-opacity:1"
       d="m 772.62684,-140.80126 c 0,0 -10.36277,-24.30286 -2.61898,-36.59456 5.69789,-6.21377 10.04661,-6.9596 10.04661,-6.9596 0,0 -4.29149,-4.54375 0.57698,-12.96575 4.86849,-8.42201 18.72096,-10.8251 26.8016,-6.86299 8.0806,3.96213 8.74934,11.29335 17.6565,8.81021 8.90711,-2.48314 17.14702,-3.5979 21.48511,4.24534 4.33805,7.84322 1.10744,19.92644 8.08047,19.5179 6.97311,-0.40875 17.27468,4.98248 12.58743,17.04591 -4.68728,12.06352 -5.79591,13.7477 -8.89911,35.82798 -3.1032,22.080233 -14.59874,25.458423 -13.62486,17.70914 0.97393,-7.74936 0.97393,-18.4881 0.97393,-18.4881 0,0 1.70451,-17.86773 0,-26.55307 -1.3352,-6.80326 4.47495,-19.5345 -7.8611,-19.25634 -12.3363,0.27787 -26.76282,4.38066 -38.64865,-5.36577 -11.88583,-9.74639 -11.4808,-9.93577 -11.4808,-9.93577 0,0 -8.93979,2.3979 -11.76501,9.55464 -1.40369,3.55574 -1.45508,13.56348 -2.94685,23.75399 z"
       id="path1429"
       sodipodi:nodetypes="cccsssssssscasscscc"
       inkscape:export-xdpi="110"
       inkscape:export-ydpi="110" />
    <path
       style="fill:#ffffff;fill-opacity:1;stroke:none;stroke-width:1.27442px;stroke-linecap:butt;stroke-linejoin:miter;stroke-opacity:1"
       d="m 846.45119,-133.75427 c -0.12665,-0.93318 3.43096,-10.00283 6.7847,-6.66992 4.13973,4.11393 4.76561,9.65638 2.713,14.40703 -3.04012,7.03627 -10.06856,7.02272 -10.25663,6.50138 -1.86521,-5.1708 -0.66285,-9.72661 0.75893,-14.23849 z"
       id="path1431"
       sodipodi:nodetypes="csssc"
       inkscape:export-xdpi="110"
       inkscape:export-ydpi="110" />
    <path
       style="opacity:0.287431;fill:none;stroke:#000000;stroke-width:1.27442px;stroke-linecap:round;stroke-linejoin:round;stroke-opacity:1"
       d="m 851.39957,-125.91516 c 0.46356,-4.05646 2.89353,-5.89943 5.54909,-6.43373"
       id="path1433"
       sodipodi:nodetypes="cc"
       inkscape:export-xdpi="110"
       inkscape:export-ydpi="110" />
    <path
       style="fill:none;stroke:#000000;stroke-width:2.29488;stroke-linecap:round;stroke-linejoin:round;stroke-miterlimit:4;stroke-dasharray:none;stroke-opacity:1"
       d="m 806.9647,-96.106277 c 0,0 -1.27399,4.08738 -7.51215,5.2043 -4.94319,0.88511 -8.06723,-2.23139 -8.06723,-2.23139"
       id="path1435"
       sodipodi:nodetypes="csc"
       inkscape:export-xdpi="110"
       inkscape:export-ydpi="110" />
    <path
       style="fill:#11202a;fill-opacity:1;stroke:none;stroke-width:0.511137px;stroke-linecap:butt;stroke-linejoin:miter;stroke-opacity:1"
       d="m 776.81674,-66.726437 c 18.84611,16.6716 40.06353,27.927823 74.08034,8.28179 7.62953,8.23626 17.64751,13.16012 28.53955,17.38528 16.73577,6.491977 26.46699,8.262142 35.07469,19.273202 13.03507,16.6747315 5.47043,42.777746 7.98918,67.777186 -75.43263,-7.62123 -144.14109,-33.63767 -196.70458,-102.670028 0.004,0.002 34.63601,-1.7204 51.02082,-10.04743 z"
       id="path1437"
       sodipodi:nodetypes="ccssccc"
       inkscape:export-xdpi="110"
       inkscape:export-ydpi="110" />
    <path
       style="opacity:1;fill:#333333;fill-opacity:1;stroke:none;stroke-width:1.89673;stroke-linecap:round;stroke-linejoin:round;stroke-miterlimit:4;stroke-dasharray:none;stroke-opacity:1;paint-order:stroke fill markers"
       id="path1439"
       sodipodi:type="arc"
       sodipodi:cx="779.42133"
       sodipodi:cy="-127.30526"
       sodipodi:rx="2.8429465"
       sodipodi:ry="2.8429465"
       sodipodi:start="1.578467"
       sodipodi:end="1.5707963"
       sodipodi:open="true"
       sodipodi:arc-type="arc"
       d="m 779.39952,-124.4624 a 2.8429465,2.8429465 0 0 1 -2.82109,-2.85922 2.8429465,2.8429465 0 0 1 2.8538,-2.82657 2.8429465,2.8429465 0 0 1 2.83204,2.84838 2.8429465,2.8429465 0 0 1 -2.84294,2.8375"
       inkscape:export-xdpi="110"
       inkscape:export-ydpi="110" />
    <path
       style="opacity:1;fill:#333333;fill-opacity:1;stroke:none;stroke-width:1.89673;stroke-linecap:round;stroke-linejoin:round;stroke-miterlimit:4;stroke-dasharray:none;stroke-opacity:1;paint-order:stroke fill markers"
       id="path1441"
       sodipodi:type="arc"
       sodipodi:cx="809.63086"
       sodipodi:cy="-127.30526"
       sodipodi:rx="2.8429465"
       sodipodi:ry="2.8429465"
       sodipodi:start="1.578467"
       sodipodi:end="1.5707963"
       sodipodi:open="true"
       sodipodi:arc-type="arc"
       d="m 809.60905,-124.4624 a 2.8429465,2.8429465 0 0 1 -2.82109,-2.85922 2.8429465,2.8429465 0 0 1 2.8538,-2.82657 2.8429465,2.8429465 0 0 1 2.83204,2.84838 2.8429465,2.8429465 0 0 1 -2.84294,2.8375"
       inkscape:export-xdpi="110"
       inkscape:export-ydpi="110" />
  </g>
</svg>
